<svg width="800" height="800" viewBox="0 0 800 800" fill="none" xmlns="http://www.w3.org/2000/svg">
<rect width="800" height="800" fill="#757575"/>
<path d="M144.277 493.734L116.115 480.608C114.325 479.773 113.49 477.625 114.325 475.835C115.161 474.045 117.309 473.209 119.099 474.045L147.261 487.171C149.051 488.006 149.886 490.154 149.051 491.944C148.215 493.734 146.067 494.57 144.277 493.734Z" fill="#A9A8A9"/>
<path d="M147.38 487.171L119.218 474.045C117.428 473.209 116.593 471.061 117.428 469.271C118.263 467.481 120.411 466.646 122.201 467.481L150.363 480.608C152.153 481.443 152.989 483.591 152.153 485.381C151.318 487.29 149.17 488.006 147.38 487.171Z" fill="#A9A8A9"/>
<path d="M150.364 480.727L122.201 467.601C120.411 466.766 119.576 464.618 120.411 462.828C121.247 461.038 123.395 460.202 125.185 461.038L153.347 474.164C155.137 474.999 155.972 477.147 155.137 478.937C154.301 480.847 152.153 481.563 150.364 480.727Z" fill="#A9A8A9"/>
<path d="M470.289 475.596L482.58 499.701C486.279 506.98 480.79 515.572 472.556 515.094L449.526 513.901L470.289 475.596Z" fill="#D42323"/>
<path d="M470.289 475.596L482.58 499.701C486.279 506.98 480.79 515.572 472.556 515.094L449.526 513.901L470.289 475.596Z" stroke="#151515" stroke-width="4" stroke-miterlimit="10" stroke-linecap="round" stroke-linejoin="round"/>
<path d="M444.991 462.589L586.159 281.087L608.474 284.905L467.425 482.637L444.991 462.589Z" fill="#242424"/>
<path d="M598.331 283.115L460.385 476.312L467.425 482.637L608.474 284.905L598.331 283.115Z" fill="#1A1A1A"/>
<path d="M576.255 293.736L593.439 302.686L598.808 290.037L590.813 283.115L576.255 293.736Z" fill="#1A1A1A"/>
<path d="M444.991 462.589L586.159 281.087L608.474 284.905L467.425 482.637L444.991 462.589Z" stroke="#151515" stroke-width="4" stroke-miterlimit="10" stroke-linecap="round" stroke-linejoin="round"/>
<path d="M674.225 252.209L673.032 252.447C647.256 257.101 621.123 258.056 595.109 255.431L553.224 253.044C545.348 252.567 537.711 256.147 532.58 262.71L522.794 275.478C521.482 277.268 522.317 279.894 524.346 280.371C524.346 280.371 573.868 280.968 617.901 301.254C622.078 303.163 626.851 303.282 631.027 301.015C646.182 292.901 681.146 273.808 681.146 273.808C685.442 271.421 687.829 266.171 686.636 260.801C685.323 254.834 679.834 251.135 674.225 252.209Z" fill="#646464"/>
<path d="M524.346 280.252C524.346 280.252 525.062 280.252 526.374 280.252L532.699 272.137C537.83 265.574 545.348 261.994 553.343 262.471L600.956 270.586C626.97 273.33 643.557 271.182 673.032 261.875L674.225 261.636C679.118 260.801 684.01 263.426 686.039 268.199C686.994 265.932 687.232 263.307 686.636 260.681C685.323 254.715 679.834 251.135 674.225 252.089L673.032 252.328C647.256 256.982 621.123 257.937 595.109 255.311L553.224 252.925C545.348 252.447 537.711 256.027 532.58 262.591L522.794 275.359C521.482 277.149 522.317 279.774 524.346 280.252Z" fill="#242424"/>
<path d="M674.225 252.209L673.032 252.447C647.256 257.101 621.123 258.056 595.109 255.431L553.224 253.044C545.348 252.567 537.711 256.147 532.58 262.71L522.794 275.478C521.482 277.268 522.317 279.894 524.346 280.371C524.346 280.371 573.868 280.968 617.901 301.254C622.078 303.163 626.851 303.282 631.027 301.015C646.182 292.901 681.146 273.808 681.146 273.808C685.442 271.421 687.829 266.171 686.636 260.801C685.323 254.834 679.834 251.135 674.225 252.209Z" stroke="#151515" stroke-width="4" stroke-miterlimit="10" stroke-linecap="round" stroke-linejoin="round"/>
<path d="M144.277 493.734L116.115 480.608C114.325 479.773 113.49 477.625 114.325 475.835C115.161 474.045 117.309 473.209 119.099 474.045L147.261 487.171C149.051 488.006 149.886 490.154 149.051 491.944C148.215 493.734 146.067 494.57 144.277 493.734Z" stroke="#151515" stroke-width="4" stroke-miterlimit="10" stroke-linecap="round" stroke-linejoin="round"/>
<path d="M147.38 487.171L119.218 474.045C117.428 473.209 116.593 471.061 117.428 469.271C118.263 467.481 120.411 466.646 122.201 467.481L150.363 480.608C152.153 481.443 152.989 483.591 152.153 485.381C151.318 487.29 149.17 488.006 147.38 487.171Z" stroke="#151515" stroke-width="4" stroke-miterlimit="10" stroke-linecap="round" stroke-linejoin="round"/>
<path d="M150.364 480.727L122.201 467.601C120.411 466.766 119.576 464.618 120.411 462.828C121.247 461.038 123.395 460.202 125.185 461.038L153.347 474.164C155.137 474.999 155.972 477.147 155.137 478.937C154.301 480.847 152.153 481.563 150.364 480.727Z" stroke="#151515" stroke-width="4" stroke-miterlimit="10" stroke-linecap="round" stroke-linejoin="round"/>
<path d="M154.182 474.403L124.827 460.68C122.798 459.725 121.844 457.338 122.798 455.19L174.826 343.616C175.781 341.588 178.168 340.633 180.316 341.588L209.671 355.311C211.7 356.265 212.654 358.652 211.7 360.8L159.671 472.493C158.717 474.522 156.211 475.357 154.182 474.403Z" fill="#FE3131"/>
<path d="M209.671 355.43L180.315 341.707C180.077 341.588 179.838 341.468 179.48 341.468L196.783 349.583C198.812 350.537 199.766 352.924 198.812 355.072L146.783 466.646C145.948 468.436 144.039 469.391 142.129 468.914L154.182 474.522C156.21 475.477 158.716 474.641 159.671 472.493L211.699 360.919C212.654 358.891 211.699 356.385 209.671 355.43Z" fill="#D42323"/>
<path d="M154.182 474.403L124.827 460.68C122.798 459.725 121.844 457.338 122.798 455.19L174.826 343.616C175.781 341.588 178.168 340.633 180.316 341.588L209.671 355.311C211.7 356.265 212.654 358.652 211.7 360.8L159.671 472.493C158.717 474.522 156.211 475.357 154.182 474.403Z" stroke="#151515" stroke-width="4" stroke-miterlimit="10" stroke-linecap="round" stroke-linejoin="round"/>
<path d="M432.7 641.227C430.671 630.487 429.598 619.39 429.598 608.053C429.598 541.586 479 471.3 479 471.3L450.719 448.15L425.898 473.209C408.953 491.944 377.092 495.405 355.016 483.233L187.833 408.174L165.041 454.594L299.408 532.875C342.247 561.753 368.739 609.485 370.29 661.155L370.529 665.093C371.722 683.351 387.712 696.955 405.851 695.403C424.586 693.733 437.951 676.668 435.206 658.053L432.7 641.227Z" fill="#FE3131"/>
<path d="M387.115 664.377L378.643 659.962C376.853 601.848 383.058 554.712 310.863 511.753L171.485 441.587L165.16 454.594L299.527 532.875C342.366 561.753 366.113 601.251 369.932 652.564L372.796 654.592C373.631 667.719 382.103 678.458 393.679 682.874C389.86 677.623 387.473 671.299 387.115 664.377Z" fill="#D42323"/>
<path d="M432.7 641.227C430.671 630.487 429.597 619.39 429.597 608.053C429.597 541.586 479 471.3 479 471.3L472.676 466.169C467.903 473.209 410.624 536.932 410.624 599.7C410.624 611.036 401.197 630.487 403.225 641.227L422.676 646.716C425.54 665.332 412.056 682.396 393.321 684.067C386.996 684.663 381.03 683.351 375.779 680.726C382.104 690.391 393.559 696.477 405.851 695.284C424.585 693.613 437.951 676.549 435.206 657.933L432.7 641.227Z" fill="#D42323"/>
<path d="M286.759 521.658L166.473 451.611L165.041 454.713L299.408 532.994C303.226 535.5 306.806 538.245 310.267 540.989C303.107 533.829 295.35 527.386 286.759 521.658Z" fill="#D42323"/>
<g opacity="0.83">
<g opacity="0.83">
<g opacity="0.83">
<path opacity="0.83" d="M365.994 628.578C368.5 639.199 370.052 650.058 370.41 661.155L370.648 665.093C371.125 672.492 374.109 679.174 378.643 684.425C377.45 664.974 373.035 646.239 365.994 628.578Z" fill="#FC8686"/>
</g>
<g opacity="0.83">
<path opacity="0.83" d="M362.056 494.45C386.28 507.815 416.59 499.582 435.206 479.057L456.686 452.923L450.719 448.031L425.898 473.09C408.953 491.825 377.092 495.286 355.016 483.114L187.833 408.055L184.492 414.737L362.056 494.45Z" fill="#FC8686"/>
</g>
</g>
</g>
<path d="M179.719 457.816L200.84 413.902L183.179 406.146L161.222 450.656L179.719 457.816Z" fill="#D42323"/>
<path d="M432.7 641.227C430.671 630.487 429.598 619.39 429.598 608.053C429.598 541.586 479 471.3 479 471.3L450.719 448.15L425.898 473.209C408.953 491.944 377.092 495.405 355.016 483.233L187.833 408.174L165.041 454.594L299.408 532.875C342.247 561.753 368.739 609.485 370.29 661.155L370.529 665.093C371.722 683.351 387.712 696.955 405.851 695.403C424.586 693.733 437.951 676.668 435.206 658.053L432.7 641.227Z" stroke="#151515" stroke-width="4" stroke-miterlimit="10" stroke-linecap="round" stroke-linejoin="round"/>
<path d="M221.126 299.344L251.317 128.105L223.99 123.332L191.294 309.01L190.458 313.664C189.504 319.153 191.89 324.523 196.186 326.433L215.876 335.144C220.41 337.172 225.184 331.802 223.871 326.313C221.723 317.602 219.814 306.982 221.126 299.344Z" fill="#242424"/>
<path d="M221.126 299.344L251.317 128.105L223.99 123.332L223.036 128.94L240.1 131.923L209.79 303.044C208.477 310.681 210.267 321.301 212.415 329.893C212.773 331.086 212.654 332.399 212.415 333.473L215.756 334.905C220.291 336.934 225.064 331.564 223.752 326.075C221.723 317.602 219.814 306.982 221.126 299.344Z" fill="#1A1A1A"/>
<path d="M221.126 299.344L251.317 128.105L223.99 123.332L191.294 309.01L190.458 313.664C189.504 319.153 191.89 324.523 196.186 326.433L215.876 335.144C220.41 337.172 225.184 331.802 223.871 326.313C221.723 317.602 219.814 306.982 221.126 299.344Z" stroke="#151515" stroke-width="4" stroke-miterlimit="10" stroke-linecap="round" stroke-linejoin="round"/>
<path d="M209.671 355.788L183.06 345.048C177.571 342.781 174.945 336.576 177.093 331.086C179.361 325.597 185.566 322.972 191.055 325.12L217.666 335.86C223.155 338.127 225.78 344.332 223.632 349.821C221.484 355.311 215.16 357.936 209.671 355.788Z" fill="#242424"/>
<path d="M217.785 335.86L208.477 332.041C211.341 335.024 212.415 339.559 210.745 343.616C208.477 349.105 202.272 351.731 196.783 349.583L179.599 342.662C180.554 343.616 181.867 344.451 183.179 345.048L209.79 355.788C215.279 358.055 221.604 355.311 223.752 349.821C225.9 344.332 223.274 338.008 217.785 335.86Z" fill="#1A1A1A"/>
<path d="M209.671 355.788L183.06 345.048C177.571 342.781 174.945 336.576 177.093 331.086C179.361 325.597 185.566 322.972 191.055 325.12L217.666 335.86C223.155 338.127 225.78 344.332 223.632 349.821C221.484 355.311 215.16 357.936 209.671 355.788Z" stroke="#151515" stroke-width="4" stroke-miterlimit="10" stroke-linecap="round" stroke-linejoin="round"/>
<path d="M246.78 151.985C254.229 148.025 256.004 136.795 250.745 126.902C245.486 117.009 235.184 112.199 227.735 116.159C220.286 120.119 218.511 131.349 223.77 141.242C229.029 151.135 239.331 155.944 246.78 151.985Z" fill="#151515"/>
<path d="M403.563 652.982L506.665 655.846C509.529 655.966 511.916 658.83 511.916 662.41C511.916 665.99 509.529 668.973 506.665 668.973L403.563 671.837C400.58 671.956 398.074 668.973 398.074 665.154V659.307C397.955 655.846 400.461 652.863 403.563 652.982Z" fill="#242424" stroke="black" stroke-width="4"/>
<path d="M496.878 637.409H497.355C501.771 637.409 505.47 640.988 505.47 645.523V680.129C505.47 684.544 501.89 688.243 497.355 688.243H496.878C492.463 688.243 488.764 684.664 488.764 680.129V645.523C488.764 640.988 492.463 637.409 496.878 637.409Z" fill="black" stroke="black" stroke-width="4"/>
<path d="M246.79 151.266C254.239 147.306 256.014 136.077 250.755 126.184C245.496 116.291 235.194 111.481 227.746 115.441C220.297 119.4 218.522 130.63 223.781 140.523C229.04 150.416 239.342 155.226 246.79 151.266Z" stroke="#151515" stroke-width="4" stroke-miterlimit="10" stroke-linecap="round" stroke-linejoin="round"/>
<path d="M403.225 696C422.272 696 437.712 680.56 437.712 661.513C437.712 642.467 422.272 627.027 403.225 627.027C384.179 627.027 368.739 642.467 368.739 661.513C368.739 680.56 384.179 696 403.225 696Z" fill="#242424"/>
<path d="M403.225 696C422.272 696 437.712 680.56 437.712 661.513C437.712 642.467 422.272 627.027 403.225 627.027C384.179 627.027 368.739 642.467 368.739 661.513C368.739 680.56 384.179 696 403.225 696Z" stroke="#151515" stroke-width="4" stroke-miterlimit="10" stroke-linecap="round" stroke-linejoin="round"/>
<path d="M403.225 696C422.272 696 437.712 680.56 437.712 661.513C437.712 642.467 422.272 627.027 403.225 627.027C384.179 627.027 368.739 642.467 368.739 661.513C368.739 680.56 384.179 696 403.225 696Z" stroke="#151515" stroke-width="4" stroke-miterlimit="10" stroke-linecap="round" stroke-linejoin="round"/>
<path opacity="0.92" d="M403.225 681.8C414.429 681.8 423.511 672.717 423.511 661.513C423.511 650.31 414.429 641.227 403.225 641.227C392.021 641.227 382.939 650.31 382.939 661.513C382.939 672.717 392.021 681.8 403.225 681.8Z" fill="#191919"/>
<path d="M473.392 511.753C476.16 511.753 478.404 509.509 478.404 506.741C478.404 503.973 476.16 501.729 473.392 501.729C470.624 501.729 468.38 503.973 468.38 506.741C468.38 509.509 470.624 511.753 473.392 511.753Z" fill="white" stroke="#151515" stroke-width="4" stroke-miterlimit="10" stroke-linecap="round" stroke-linejoin="round"/>
<path d="M413.249 643.972C413.249 643.972 406.089 628.101 411.578 592.302C417.187 556.502 423.392 540.631 423.392 540.631C423.392 540.631 414.92 542.899 403.106 571.896C391.292 601.132 390.218 643.972 390.218 643.972H413.249V643.972Z" fill="#191919"/>
<path d="M413.249 643.972C413.249 643.972 406.089 628.101 411.578 592.302C417.187 556.502 423.392 540.631 423.392 540.631C423.392 540.631 414.92 542.899 403.106 571.896C392.366 598.507 390.457 638.96 390.218 645.881C385.684 649.58 382.82 655.189 382.82 661.513C382.82 672.73 391.889 681.8 403.106 681.8C414.323 681.8 423.392 672.73 423.392 661.513C423.511 653.996 419.335 647.432 413.249 643.972Z" stroke="#151515" stroke-width="4" stroke-miterlimit="10" stroke-linecap="round" stroke-linejoin="round"/>
<path d="M405.612 671.656L302.51 668.793C299.646 668.673 297.26 665.809 297.26 662.229C297.26 658.649 299.646 655.666 302.51 655.666L405.612 652.802C408.595 652.683 411.101 655.666 411.101 659.485V665.332C411.221 668.793 408.715 671.776 405.612 671.656Z" fill="#242424"/>
<path d="M405.612 671.656L302.51 668.793C299.646 668.673 297.26 665.809 297.26 662.229C297.26 658.649 299.646 655.666 302.51 655.666L405.612 652.802C408.595 652.683 411.101 655.666 411.101 659.485V665.332C411.221 668.793 408.715 671.776 405.612 671.656Z" stroke="#151515" stroke-width="4" stroke-miterlimit="10" stroke-linecap="round" stroke-linejoin="round"/>
<path d="M398.213 662.11H411.22" stroke="#151515" stroke-width="4" stroke-miterlimit="10" stroke-linecap="round" stroke-linejoin="round"/>
<path d="M312.295 687.527H311.818C307.402 687.527 303.703 683.948 303.703 679.413V644.807C303.703 640.392 307.283 636.693 311.818 636.693H312.295C316.71 636.693 320.41 640.272 320.41 644.807V679.413C320.41 683.948 316.71 687.527 312.295 687.527Z" fill="#161616"/>
<path d="M312.295 687.527H311.818C307.402 687.527 303.703 683.948 303.703 679.413V644.807C303.703 640.392 307.283 636.693 311.818 636.693H312.295C316.71 636.693 320.41 640.272 320.41 644.807V679.413C320.41 683.948 316.71 687.527 312.295 687.527Z" stroke="#151515" stroke-width="4" stroke-miterlimit="10" stroke-linecap="round" stroke-linejoin="round"/>
<path d="M516.828 370.108L536.995 384.905" stroke="#151515" stroke-width="4" stroke-miterlimit="10" stroke-linecap="round" stroke-linejoin="round"/>
<path d="M536.995 386.695L543.916 391.587" stroke="#151515" stroke-width="6" stroke-miterlimit="10" stroke-linecap="round" stroke-linejoin="round"/>
<path opacity="0.46" d="M532.699 363.664L579.119 302.686" stroke="white" stroke-width="3" stroke-miterlimit="10" stroke-linecap="round" stroke-linejoin="round"/>
<path opacity="0.46" d="M468.499 447.911L518.499 381.802" stroke="white" stroke-width="3" stroke-miterlimit="10" stroke-linecap="round" stroke-linejoin="round"/>
<path d="M198.216 148.442L174.507 159.144L176.913 164.473L200.622 153.771L198.216 148.442Z" stroke="#151515" stroke-width="6" stroke-miterlimit="10" stroke-linecap="round" stroke-linejoin="round"/>
<path d="M233.656 143.618L203.107 157.341L197.141 144.095L227.57 130.372C230.553 129.059 234.133 130.372 235.446 133.355L236.52 135.623C237.952 138.725 236.639 142.305 233.656 143.618Z" fill="#151515"/>
<path d="M233.656 143.618L203.107 157.341L197.141 144.095L227.57 130.372C230.553 129.059 234.133 130.372 235.446 133.355L236.52 135.623C237.952 138.725 236.639 142.305 233.656 143.618Z" stroke="#151515" stroke-width="4" stroke-miterlimit="10" stroke-linecap="round" stroke-linejoin="round"/>
<path d="M173.394 170.348C177.151 170.348 180.196 167.249 180.196 163.427C180.196 159.604 177.151 156.506 173.394 156.506C169.638 156.506 166.592 159.604 166.592 163.427C166.592 167.249 169.638 170.348 173.394 170.348Z" fill="#5E5E5E"/>
<path d="M173.394 172.496C178.337 172.496 182.344 168.435 182.344 163.427C182.344 158.418 178.337 154.358 173.394 154.358C168.451 154.358 164.444 158.418 164.444 163.427C164.444 168.435 168.451 172.496 173.394 172.496Z" stroke="#151515" stroke-width="4" stroke-miterlimit="10" stroke-linecap="round" stroke-linejoin="round"/>
<path d="M173.394 172.496C178.337 172.496 182.344 168.435 182.344 163.427C182.344 158.418 178.337 154.358 173.394 154.358C168.451 154.358 164.444 158.418 164.444 163.427C164.444 168.435 168.451 172.496 173.394 172.496Z" fill="#151515"/>
<path d="M274.756 113.125L246.587 125.84L249.386 132.039L277.554 119.324L274.756 113.125Z" stroke="#151515" stroke-width="7" stroke-miterlimit="10" stroke-linecap="round" stroke-linejoin="round"/>
<path d="M243.799 132.759C246.897 132.759 249.408 130.194 249.408 127.031C249.408 123.867 246.897 121.303 243.799 121.303C240.702 121.303 238.191 123.867 238.191 127.031C238.191 130.194 240.702 132.759 243.799 132.759Z" fill="#5E5E5E"/>
<path d="M243.799 134.549C247.885 134.549 251.198 131.183 251.198 127.031C251.198 122.879 247.885 119.513 243.799 119.513C239.713 119.513 236.401 122.879 236.401 127.031C236.401 131.183 239.713 134.549 243.799 134.549Z" stroke="#151515" stroke-width="4" stroke-miterlimit="10" stroke-linecap="round" stroke-linejoin="round"/>
<path d="M243.799 134.549C247.885 134.549 251.198 131.183 251.198 127.031C251.198 122.879 247.885 119.513 243.799 119.513C239.713 119.513 236.401 122.879 236.401 127.031C236.401 131.183 239.713 134.549 243.799 134.549Z" fill="#151515"/>
<path d="M275.541 125.48C281.407 125.48 286.162 120.671 286.162 114.74C286.162 108.808 281.407 104 275.541 104C269.676 104 264.921 108.808 264.921 114.74C264.921 120.671 269.676 125.48 275.541 125.48Z" fill="#151515"/>
<path opacity="0.46" d="M200.721 146.601L218.143 138.606" stroke="white" stroke-width="2" stroke-miterlimit="10" stroke-linecap="round" stroke-linejoin="round"/>
<path opacity="0.46" d="M258.477 122.616L262.176 120.945" stroke="white" stroke-width="2" stroke-miterlimit="10" stroke-linecap="round" stroke-linejoin="round"/>
<path opacity="0.46" d="M201.079 294.452L199.528 303.521C199.528 303.521 198.215 312.113 199.05 316.647C199.886 321.182 203.585 322.495 203.585 322.495" stroke="white" stroke-width="2" stroke-miterlimit="10" stroke-linecap="round" stroke-linejoin="round"/>
<path opacity="0.46" d="M224.468 156.506L202.392 285.383" stroke="white" stroke-width="2" stroke-miterlimit="10" stroke-linecap="round" stroke-linejoin="round"/>
<path opacity="0.46" d="M188.549 330.49C188.549 330.49 184.85 330.49 183.657 333.95C183.179 335.621 183.537 337.65 185.208 339.201" stroke="white" stroke-width="2" stroke-miterlimit="10" stroke-linecap="round" stroke-linejoin="round"/>
<path opacity="0.46" d="M134.85 454.594L180.912 356.504" stroke="white" stroke-width="2" stroke-miterlimit="10" stroke-linecap="round" stroke-linejoin="round"/>
<path opacity="0.46" d="M230.554 122.616C230.554 122.616 232.94 117.962 240.1 119.632" stroke="white" stroke-width="2" stroke-miterlimit="10" stroke-linecap="round" stroke-linejoin="round"/>
<path opacity="0.46" d="M405.493 580.846C405.493 580.846 400.481 595.523 398.213 613.781" stroke="white" stroke-width="2" stroke-miterlimit="10" stroke-linecap="round" stroke-linejoin="round"/>
<path opacity="0.46" d="M396.543 623.089C396.543 623.089 395.469 640.272 395.469 643.375" stroke="white" stroke-width="2" stroke-miterlimit="10" stroke-linecap="round" stroke-linejoin="round"/>
</svg>
