<svg width="500" height="500" viewBox="0 0 500 500" fill="none" xmlns="http://www.w3.org/2000/svg">
<rect width="500" height="500" fill="#FFC296"/>
<path d="M88 378.066L277.026 135.033L306.905 140.146L118.04 404.91L88 378.066Z" fill="#242424"/>
<path d="M293.323 137.75L108.612 396.441L118.039 404.91L306.905 140.146L293.323 137.75Z" fill="#1A1A1A"/>
<path d="M263.763 151.97L286.772 163.954L293.963 147.017L283.257 137.75L263.763 151.97Z" fill="#1A1A1A"/>
<path d="M88 378.066L277.026 135.033L306.905 140.146L118.04 404.91L88 378.066Z" stroke="#151515" stroke-width="4" stroke-miterlimit="10" stroke-linecap="round" stroke-linejoin="round"/>
<path d="M394.947 96.3651L393.349 96.6847C358.835 102.916 323.843 104.195 289.01 100.679L232.925 97.4836C222.379 96.8445 212.153 101.638 205.282 110.426L192.18 127.523C190.422 129.92 191.541 133.435 194.257 134.074C194.257 134.074 260.568 134.873 319.528 162.037C325.121 164.593 331.512 164.753 337.105 161.717C357.397 150.852 404.214 125.286 404.214 125.286C409.967 122.09 413.162 115.06 411.564 107.87C409.807 99.8804 402.457 94.927 394.947 96.3651Z" fill="#686868"/>
<path d="M194.257 133.915C194.257 133.915 195.216 133.915 196.973 133.915L205.442 123.049C212.313 114.261 222.379 109.467 233.085 110.107L296.839 120.972C331.672 124.647 353.882 121.771 393.349 109.308L394.947 108.988C401.498 107.87 408.049 111.385 410.766 117.776C412.044 114.74 412.363 111.225 411.564 107.71C409.807 99.7206 402.457 94.927 394.947 96.2053L393.349 96.5249C358.835 102.757 323.843 104.035 289.01 100.52L232.925 97.3238C222.379 96.6847 212.153 101.478 205.282 110.266L192.18 127.363C190.422 129.76 191.541 133.275 194.257 133.915Z" fill="#242424"/>
<path d="M394.947 96.3651L393.349 96.6847C358.835 102.916 323.843 104.195 289.01 100.679L232.925 97.4836C222.379 96.8445 212.153 101.638 205.282 110.426L192.18 127.523C190.422 129.92 191.541 133.435 194.257 134.074C194.257 134.074 260.568 134.873 319.528 162.037C325.121 164.593 331.512 164.753 337.105 161.717C357.397 150.852 404.214 125.286 404.214 125.286C409.967 122.09 413.162 115.06 411.564 107.87C409.807 99.8804 402.457 94.927 394.947 96.3651Z" stroke="#151515" stroke-width="4" stroke-miterlimit="10" stroke-linecap="round" stroke-linejoin="round"/>
<path d="M184.191 254.233L211.194 274.046" stroke="#151515" stroke-width="4" stroke-miterlimit="10" stroke-linecap="round" stroke-linejoin="round"/>
<path d="M211.194 276.443L220.462 282.994" stroke="#151515" stroke-width="6" stroke-miterlimit="10" stroke-linecap="round" stroke-linejoin="round"/>
<path opacity="0.46" d="M205.442 245.604L267.598 163.954" stroke="white" stroke-width="3" stroke-miterlimit="10" stroke-linecap="round" stroke-linejoin="round"/>
<path opacity="0.46" d="M119.478 358.412L186.428 269.891" stroke="white" stroke-width="3" stroke-miterlimit="10" stroke-linecap="round" stroke-linejoin="round"/>
</svg>
