<svg width="500" height="500" viewBox="0 0 500 500" fill="none" xmlns="http://www.w3.org/2000/svg">
<rect width="500" height="500" fill="#FFADAD"/>
<path d="M335.399 346.777C334.699 335.345 335.039 323.666 336.527 311.88C345.249 242.777 405.835 176.187 405.835 176.187L379.47 148.408L350.376 171.204C330.301 188.458 296.722 187.875 275.367 172.323L111.405 72.3482L81.6171 117.618L211.039 216.636C251.788 252.281 273.067 305.383 267.899 359.306L267.63 363.431C266.475 382.569 281.314 398.811 300.375 399.578C320.072 400.3 336.207 384.313 335.796 364.599L335.399 346.777Z" fill="#FE3131"/>
<path d="M284.969 364.863L276.74 359.161C282.505 298.508 295.142 250.317 225.721 196.18L90.0236 104.941L81.7413 117.633L211.164 216.652C251.913 252.297 271.418 296.478 268.654 350.326L271.366 352.811C270.511 366.568 277.911 378.845 289.365 384.954C286.084 378.995 284.433 372.106 284.969 364.863Z" fill="#D42323"/>
<path d="M335.399 346.777C334.699 335.345 335.039 323.666 336.527 311.88C345.249 242.777 405.835 176.187 405.835 176.187L399.933 170.023C394.047 176.716 326.134 235.449 317.897 300.706C316.409 312.492 304.056 331.477 304.756 342.909L324.258 351.169C324.792 370.898 308.534 386.87 288.837 386.148C282.183 385.939 276.152 383.791 271.038 380.372C276.345 391.251 287.456 399.082 300.391 399.454C320.088 400.176 336.223 384.189 335.812 364.475L335.399 346.777Z" fill="#D42323"/>
<path d="M199.361 203.314L83.4976 114.704L81.6016 117.742L211.024 216.76C214.665 219.866 218.027 223.19 221.265 226.497C214.76 218.114 207.542 210.397 199.361 203.314Z" fill="#D42323"/>
<g opacity="0.83">
<path opacity="0.83" d="M267.708 324.873C268.919 336.243 269.107 347.737 268.023 359.321L267.754 363.447C267.279 371.201 269.504 378.54 273.529 384.594C274.841 364.215 272.71 344.158 267.708 324.873Z" fill="#FC8686"/>
</g>
<g opacity="0.83">
<path opacity="0.83" d="M281.215 184.909C304.646 201.983 337.238 197.4 359.286 178.504L385.047 154.153L379.485 148.284L350.392 171.08C330.316 188.334 296.737 187.75 275.383 172.199L111.42 72.2241L107.07 78.7332L281.215 184.909Z" fill="#FC8686"/>
</g>
<path d="M100.738 123.182L128.46 80.2988L111.116 69.917L82.4475 113.311L100.738 123.182Z" fill="#D42323"/>
<path d="M335.399 346.777C334.699 335.345 335.039 323.666 336.527 311.88C345.249 242.777 405.835 176.187 405.835 176.187L379.47 148.408L350.376 171.204C330.301 188.458 296.722 187.875 275.367 172.323L111.405 72.3482L81.6171 117.618L211.039 216.636C251.788 252.281 273.067 305.383 267.899 359.306L267.63 363.431C266.475 382.569 281.314 398.811 300.375 399.578C320.072 400.3 336.207 384.313 335.796 364.599L335.399 346.777Z" stroke="#151515" stroke-width="4" stroke-miterlimit="10" stroke-linecap="round" stroke-linejoin="round"/>
<path opacity="0.92" d="M299.431 385.091C311.079 386.561 321.714 378.31 323.184 366.662C324.654 355.014 316.404 344.379 304.756 342.909C293.107 341.439 282.473 349.69 281.003 361.338C279.532 372.986 287.783 383.62 299.431 385.091Z" fill="#191919"/>
<path d="M314.817 347.078C314.817 347.078 309.456 329.638 319.86 293.139C330.389 256.657 338.923 240.97 338.923 240.97C338.923 240.97 329.817 242.216 313.73 270.813C297.611 299.658 290.873 344.056 290.873 344.056L314.817 347.078V347.078Z" fill="#191919"/>
<path d="M314.817 347.078C314.817 347.078 309.455 329.638 319.86 293.14C330.389 256.657 338.923 240.971 338.923 240.971C338.923 240.971 329.817 242.216 313.73 270.813C299.072 297.07 291.778 338.876 290.622 346.041C285.422 349.292 281.708 354.747 280.878 361.322C279.406 372.984 287.645 383.603 299.307 385.075C310.969 386.547 321.588 378.308 323.06 366.646C324.171 358.846 320.69 351.475 314.817 347.078Z" stroke="#151515" stroke-width="4" stroke-miterlimit="10" stroke-linecap="round" stroke-linejoin="round"/>
<path opacity="0.46" d="M315.036 280.431C315.036 280.431 307.9 295.033 303.146 313.717" stroke="white" stroke-width="2" stroke-miterlimit="10" stroke-linecap="round" stroke-linejoin="round"/>
<path opacity="0.46" d="M300.188 323.175C300.188 323.175 296.817 340.899 296.41 344.124" stroke="white" stroke-width="2" stroke-miterlimit="10" stroke-linecap="round" stroke-linejoin="round"/>
</svg>
