<svg width="500" height="500" viewBox="0 0 500 500" fill="none" xmlns="http://www.w3.org/2000/svg">
<rect width="500" height="500" fill="#A0F4D4"/>
<path d="M250.012 289.06C271.578 289.06 289.06 271.578 289.06 250.012C289.06 228.447 271.578 210.965 250.012 210.965C228.447 210.965 210.965 228.447 210.965 250.012C210.965 271.578 228.447 289.06 250.012 289.06Z" fill="#242424"/>
<path d="M250.012 289.06C271.578 289.06 289.06 271.578 289.06 250.012C289.06 228.447 271.578 210.965 250.012 210.965C228.447 210.965 210.965 228.447 210.965 250.012C210.965 271.578 228.447 289.06 250.012 289.06Z" stroke="#151515" stroke-width="4" stroke-miterlimit="10" stroke-linecap="round" stroke-linejoin="round"/>
<path d="M357.149 308.95L287.717 263.801C276.613 256.601 275.759 240.616 286.009 232.197L350.315 180.093L339.089 166.182L274.783 218.286C264.533 226.584 249.036 222.435 244.277 210.11L214.625 132.87L197.908 139.337L227.56 216.7C232.319 229.024 223.655 242.447 210.354 243.179L127.622 247.572L128.599 265.509L211.33 261.116C224.631 260.384 234.637 272.831 231.22 285.643L209.744 365.69L227.072 370.327L248.548 290.28C251.964 277.467 266.973 271.732 278.077 278.932L347.509 324.08L357.149 308.95Z" fill="#B7B7B7"/>
<path d="M215.724 362.152L235.858 286.863C237.81 279.42 236.346 271.732 231.709 265.753C227.072 259.652 219.994 256.235 212.429 256.235C211.941 256.235 211.575 256.235 211.087 256.235L133.236 260.262L132.87 252.087L210.721 248.06C218.652 247.694 225.608 243.667 229.878 236.956C234.149 230.366 235.003 222.313 232.197 214.869L204.253 142.143L211.819 139.215L239.762 211.941C243.423 221.459 252.331 227.56 262.581 227.56C268.194 227.56 273.441 225.73 277.834 222.069L338.357 173.015L343.482 179.361L282.959 228.414C276.857 233.417 273.563 240.738 273.929 248.67C274.295 256.602 278.322 263.557 285.033 267.828L350.438 310.292L346.045 317.125L280.64 274.661C276.613 272.099 272.099 270.756 267.34 270.756C256.235 270.756 246.596 278.2 243.667 288.816L223.533 364.104L215.724 362.152Z" fill="#A9A8A9"/>
<path d="M357.149 308.95L287.717 263.801C276.613 256.601 275.759 240.616 286.009 232.197L350.315 180.093L339.089 166.182L274.783 218.286C264.533 226.584 249.036 222.435 244.277 210.11L214.625 132.87L197.908 139.337L227.56 216.7C232.319 229.024 223.655 242.447 210.354 243.179L127.622 247.572L128.599 265.509L211.33 261.116C224.631 260.384 234.637 272.831 231.22 285.643L209.744 365.69L227.072 370.327L248.548 290.28C251.964 277.467 266.973 271.732 278.077 278.932L347.509 324.08L357.149 308.95Z" stroke="#151515" stroke-width="4" stroke-miterlimit="10" stroke-linecap="round" stroke-linejoin="round"/>
<path d="M287.229 110.905C210.599 90.4053 131.405 136.042 110.905 212.673C90.4054 289.304 136.042 368.497 212.673 388.997C289.304 409.497 368.497 363.86 388.997 287.229C409.619 210.599 363.982 131.527 287.229 110.905ZM218.408 367.887C153.37 350.438 114.688 283.569 132.137 218.408C149.587 153.369 216.456 114.688 281.616 132.137C346.777 149.587 385.336 216.456 367.887 281.616C350.438 346.655 283.447 385.336 218.408 367.887Z" fill="#242424"/>
<path opacity="0.92" d="M287.229 110.905C210.599 90.4053 131.405 136.042 110.905 212.673C90.4054 289.304 136.042 368.497 212.673 388.997C289.304 409.497 368.497 363.86 388.997 287.229C409.619 210.599 363.982 131.527 287.229 110.905ZM379.601 284.789C363.86 343.36 310.536 384.238 249.89 384.238C238.176 384.238 226.584 382.652 215.235 379.601C180.703 370.327 151.783 348.119 133.846 317.003C115.908 285.887 111.149 249.768 120.423 215.235C136.164 156.664 189.488 115.786 250.134 115.786C261.848 115.786 273.441 117.373 284.789 120.423C319.322 129.697 348.241 151.905 366.179 183.021C384.116 214.137 388.875 250.134 379.601 284.789Z" fill="#191919"/>
<path d="M250.012 372.036C317.404 372.036 372.036 317.404 372.036 250.012C372.036 182.62 317.404 127.989 250.012 127.989C182.621 127.989 127.989 182.62 127.989 250.012C127.989 317.404 182.621 372.036 250.012 372.036Z" stroke="#151515" stroke-width="4" stroke-miterlimit="10" stroke-linecap="round" stroke-linejoin="round"/>
<path d="M287.229 110.905C210.599 90.4053 131.405 136.042 110.905 212.673C90.4054 289.304 136.042 368.497 212.673 388.997C289.304 409.497 368.497 363.86 388.997 287.229C409.619 210.599 363.982 131.527 287.229 110.905ZM218.408 367.887C153.37 350.438 114.688 283.569 132.137 218.408C149.587 153.369 216.456 114.688 281.616 132.137C346.777 149.587 385.336 216.456 367.887 281.616C350.438 346.655 283.447 385.336 218.408 367.887Z" stroke="#151515" stroke-width="4" stroke-miterlimit="10" stroke-linecap="round" stroke-linejoin="round"/>
<path d="M250.011 393.999C329.534 393.999 393.999 329.534 393.999 250.011C393.999 170.489 329.534 106.023 250.011 106.023C170.489 106.023 106.023 170.489 106.023 250.011C106.023 329.534 170.489 393.999 250.011 393.999Z" stroke="#151515" stroke-width="4" stroke-miterlimit="10" stroke-linecap="round" stroke-linejoin="round"/>
<path d="M250.011 393.999C329.534 393.999 393.999 329.534 393.999 250.011C393.999 170.489 329.534 106.023 250.011 106.023C170.489 106.023 106.023 170.489 106.023 250.011C106.023 329.534 170.489 393.999 250.011 393.999Z" stroke="#151515" stroke-width="6" stroke-miterlimit="10" stroke-linecap="round" stroke-linejoin="round"/>
<path d="M281.494 132.137C216.456 114.688 149.465 153.369 132.016 218.408C114.566 283.447 153.248 350.438 218.286 367.887C283.325 385.336 350.316 346.655 367.765 281.616C385.337 216.456 346.655 149.587 281.494 132.137ZM359.59 279.42C343.36 339.821 281.006 375.818 220.605 359.711C160.203 343.604 124.206 281.128 140.313 220.727C156.42 160.325 218.896 124.328 279.298 140.435C339.822 156.664 375.819 218.896 359.59 279.42Z" fill="#A9A8A9"/>
<path d="M281.494 132.137C216.456 114.688 149.465 153.369 132.016 218.408C114.566 283.447 153.248 350.438 218.286 367.887C283.325 385.336 350.316 346.655 367.765 281.616C385.337 216.456 346.655 149.587 281.494 132.137ZM359.59 279.42C343.36 339.821 281.006 375.818 220.605 359.711C160.203 343.604 124.206 281.128 140.313 220.727C156.42 160.325 218.896 124.328 279.298 140.435C339.822 156.664 375.819 218.896 359.59 279.42Z" stroke="#151515" stroke-width="4" stroke-miterlimit="10" stroke-linecap="round" stroke-linejoin="round"/>
<path d="M250.012 271.854C262.076 271.854 271.855 262.075 271.855 250.012C271.855 237.949 262.076 228.17 250.012 228.17C237.949 228.17 228.17 237.949 228.17 250.012C228.17 262.075 237.949 271.854 250.012 271.854Z" fill="#242424"/>
<path d="M250.012 271.854C262.076 271.854 271.855 262.075 271.855 250.012C271.855 237.949 262.076 228.17 250.012 228.17C237.949 228.17 228.17 237.949 228.17 250.012C228.17 262.075 237.949 271.854 250.012 271.854Z" stroke="#151515" stroke-width="3" stroke-miterlimit="10" stroke-linecap="round" stroke-linejoin="round"/>
<path opacity="0.92" d="M264.533 253.917C263.679 248.792 265.509 243.789 269.048 240.372C266.364 235.125 261.605 230.976 255.504 229.268C253.917 228.78 252.331 228.658 250.745 228.536C250.745 228.658 250.623 228.78 250.623 228.902C247.816 236.468 239.762 240.372 232.197 238.054C230.977 239.884 230.001 241.959 229.39 244.277C227.926 249.768 228.78 255.259 231.221 259.896C231.343 259.896 231.465 259.774 231.587 259.774C239.518 258.432 246.962 263.435 248.792 271.122C256.602 271.61 264.045 267.706 268.194 261.116C266.364 259.286 265.021 256.845 264.533 253.917Z" fill="#191919"/>
<path d="M250.012 256.968C253.853 256.968 256.967 253.854 256.967 250.012C256.967 246.171 253.853 243.057 250.012 243.057C246.171 243.057 243.057 246.171 243.057 250.012C243.057 253.854 246.171 256.968 250.012 256.968Z" fill="#151515"/>
<path d="M250.012 256.968C253.853 256.968 256.967 253.854 256.967 250.012C256.967 246.171 253.853 243.057 250.012 243.057C246.171 243.057 243.057 246.171 243.057 250.012C243.057 253.854 246.171 256.968 250.012 256.968Z" stroke="#151515" stroke-width="4" stroke-miterlimit="10" stroke-linecap="round" stroke-linejoin="round"/>
<path d="M264.533 253.917C263.679 248.792 265.509 243.789 269.048 240.372C266.364 235.125 261.605 230.976 255.504 229.268C253.917 228.78 252.331 228.658 250.745 228.536C250.745 228.658 250.623 228.78 250.623 228.902C247.816 236.468 239.762 240.372 232.197 238.054C230.977 239.884 230.001 241.959 229.39 244.277C227.926 249.768 228.78 255.259 231.221 259.896C231.343 259.896 231.465 259.774 231.587 259.774C239.518 258.432 246.962 263.435 248.792 271.122C256.602 271.61 264.045 267.706 268.194 261.116C266.364 259.286 265.021 256.845 264.533 253.917Z" stroke="#151515" stroke-width="3" stroke-miterlimit="10" stroke-linecap="round" stroke-linejoin="round"/>
<path opacity="0.67" d="M190.586 129.697C194.125 127.989 197.786 126.28 201.569 124.938" stroke="white" stroke-width="2" stroke-miterlimit="10" stroke-linecap="round" stroke-linejoin="round"/>
<path opacity="0.67" d="M120.301 215.236C128.842 183.387 148.488 156.786 174.357 139.093" stroke="white" stroke-width="2" stroke-miterlimit="10" stroke-linecap="round" stroke-linejoin="round"/>
</svg>
