<svg width="810" height="791" viewBox="0 0 810 791" fill="none" xmlns="http://www.w3.org/2000/svg">
<circle cx="399.5" cy="395.5" r="395.5" fill="url(#paint0_radial)"/>
<path d="M146.42 647.6C213.523 647.6 267.92 642.496 267.92 636.2C267.92 629.904 213.523 624.8 146.42 624.8C79.3174 624.8 24.92 629.904 24.92 636.2C24.92 642.496 79.3174 647.6 146.42 647.6Z" fill="#525456"/>
<path d="M687.62 656C754.723 656 809.12 650.896 809.12 644.6C809.12 638.304 754.723 633.2 687.62 633.2C620.517 633.2 566.12 638.304 566.12 644.6C566.12 650.896 620.517 656 687.62 656Z" fill="#525456"/>
<path d="M200.32 371.6L176.72 360.6C175.22 359.9 174.52 358.1 175.22 356.6C175.92 355.1 177.72 354.4 179.22 355.1L202.82 366.1C204.32 366.8 205.02 368.6 204.32 370.1C203.62 371.6 201.82 372.3 200.32 371.6Z" fill="#A9A8A9"/>
<path d="M202.92 366.1L179.32 355.1C177.82 354.4 177.12 352.6 177.82 351.1C178.52 349.6 180.32 348.9 181.82 349.6L205.42 360.6C206.92 361.3 207.62 363.1 206.92 364.6C206.22 366.2 204.42 366.8 202.92 366.1Z" fill="#A9A8A9"/>
<path d="M205.42 360.7L181.82 349.7C180.32 349 179.62 347.2 180.32 345.7C181.02 344.2 182.82 343.5 184.32 344.2L207.92 355.2C209.42 355.9 210.12 357.7 209.42 359.2C208.72 360.8 206.92 361.4 205.42 360.7Z" fill="#A9A8A9"/>
<path d="M473.52 356.4L483.82 376.6C486.92 382.7 482.32 389.9 475.42 389.5L456.12 388.5L473.52 356.4Z" fill="#31E5FE"/>
<path d="M528.251 451.009L509.372 461.909L516.772 474.726L535.651 463.826L528.251 451.009Z" fill="#191919"/>
<path d="M528.251 451.009L509.372 461.909L516.772 474.726L535.651 463.826L528.251 451.009Z" stroke="#151515" stroke-width="4" stroke-miterlimit="10" stroke-linecap="round" stroke-linejoin="round"/>
<path d="M473.52 356.4L483.82 376.6C486.92 382.7 482.32 389.9 475.42 389.5L456.12 388.5L473.52 356.4Z" stroke="#151515" stroke-width="4" stroke-miterlimit="10" stroke-linecap="round" stroke-linejoin="round"/>
<path d="M452.32 345.5L570.62 193.4L589.32 196.6L471.12 362.3L452.32 345.5Z" fill="#242424"/>
<path d="M580.82 195.1L465.22 357L471.12 362.3L589.32 196.6L580.82 195.1Z" fill="#1A1A1A"/>
<path d="M562.32 204L576.72 211.5L581.22 200.9L574.52 195.1L562.32 204Z" fill="#1A1A1A"/>
<path d="M452.32 345.5L570.62 193.4L589.32 196.6L471.12 362.3L452.32 345.5Z" stroke="#151515" stroke-width="4" stroke-miterlimit="10" stroke-linecap="round" stroke-linejoin="round"/>
<path d="M644.42 169.2L643.42 169.4C621.82 173.3 599.92 174.1 578.12 171.9L543.02 169.9C536.42 169.5 530.02 172.5 525.72 178L517.52 188.7C516.42 190.2 517.12 192.4 518.82 192.8C518.82 192.8 560.32 193.3 597.22 210.3C600.72 211.9 604.72 212 608.22 210.1C620.92 203.3 650.22 187.3 650.22 187.3C653.82 185.3 655.82 180.9 654.82 176.4C653.72 171.4 649.12 168.3 644.42 169.2Z" fill="#686868"/>
<path d="M518.82 192.7C518.82 192.7 519.42 192.7 520.52 192.7L525.82 185.9C530.12 180.4 536.42 177.4 543.12 177.8L583.02 184.6C604.82 186.9 618.72 185.1 643.42 177.3L644.42 177.1C648.52 176.4 652.62 178.6 654.32 182.6C655.12 180.7 655.32 178.5 654.82 176.3C653.72 171.3 649.12 168.3 644.42 169.1L643.42 169.3C621.82 173.2 599.92 174 578.12 171.8L543.02 169.8C536.42 169.4 530.02 172.4 525.72 177.9L517.52 188.6C516.42 190.1 517.12 192.3 518.82 192.7Z" fill="#242424"/>
<path d="M644.42 169.2L643.42 169.4C621.82 173.3 599.92 174.1 578.12 171.9L543.02 169.9C536.42 169.5 530.02 172.5 525.72 178L517.52 188.7C516.42 190.2 517.12 192.4 518.82 192.8C518.82 192.8 560.32 193.3 597.22 210.3C600.72 211.9 604.72 212 608.22 210.1C620.92 203.3 650.22 187.3 650.22 187.3C653.82 185.3 655.82 180.9 654.82 176.4C653.72 171.4 649.12 168.3 644.42 169.2Z" stroke="#151515" stroke-width="4" stroke-miterlimit="10" stroke-linecap="round" stroke-linejoin="round"/>
<path d="M200.32 389.9C204.92 379.8 199.92 371.9 189.92 367.1L189.82 367C189.82 367 187.32 365.9 187.02 365.8C176.62 360.7 166.92 364.1 162.12 374.8C140.62 422.6 123.12 472.1 109.92 522.8C117.02 524.6 124.12 526.5 131.22 528.3C141.62 488.3 154.72 449.2 170.42 411C172.52 405.9 177.32 402.5 182.62 402.4C190.52 402.4 196.92 397.4 200.32 389.9Z" fill="#242424"/>
<path opacity="0.46" d="M129.72 478.2L166.22 382.5" stroke="white" stroke-width="2" stroke-miterlimit="10" stroke-linecap="round" stroke-linejoin="round"/>
<path opacity="0.92" d="M198.92 373.9C198.72 375.7 198.22 377.6 197.32 379.6C193.92 387.1 187.52 392 179.72 392.1C174.42 392.2 169.52 395.6 167.52 400.7C151.82 438.8 138.72 478 128.32 518C123.02 516.6 117.72 515.2 112.42 513.9C111.62 516.9 110.82 519.8 110.02 522.8C117.12 524.6 124.22 526.5 131.32 528.3C141.72 488.3 154.82 449.2 170.52 411C172.62 405.9 177.42 402.5 182.72 402.4C190.52 402.3 196.92 397.4 200.32 389.9C203.12 383.7 202.32 378.3 198.92 373.9Z" fill="#191919"/>
<path d="M200.32 389.9C204.92 379.8 199.92 371.9 189.92 367.1L189.82 367C189.82 367 187.32 365.9 187.02 365.8C176.62 360.7 166.92 364.1 162.12 374.8C140.62 422.6 123.12 472.1 109.92 522.8C117.02 524.6 124.12 526.5 131.22 528.3C141.62 488.3 154.72 449.2 170.42 411C172.52 405.9 177.32 402.5 182.62 402.4C190.52 402.4 196.92 397.4 200.32 389.9Z" stroke="#151515" stroke-width="4" stroke-miterlimit="10" stroke-linecap="round" stroke-linejoin="round"/>
<path d="M656.02 549.1L420.02 548.6C397.02 548.1 379.32 528.1 381.62 505.2C383.92 482.3 405.32 466.3 427.92 470.4L660.52 504.2L656.02 549.1Z" fill="#23BFD4"/>
<path d="M434.32 484.6L655.22 509.5" stroke="#151515" stroke-width="3" stroke-miterlimit="10" stroke-linecap="round" stroke-linejoin="round"/>
<path d="M447.02 523.9C424.02 523.4 406.32 503.4 408.62 480.5C408.92 477.2 409.72 474.1 410.72 471.2C395.42 475.3 383.32 488.4 381.62 505.3C379.32 528.2 397.02 548.2 420.02 548.7L656.02 549.2L658.52 524.4L447.02 523.9Z" fill="#31E5FE"/>
<path d="M409.62 475.1C409.92 473.8 410.32 472.5 410.82 471.2C410.42 471.3 409.92 471.4 409.52 471.6C409.52 472.7 409.52 473.9 409.62 475.1Z" fill="#23BFD4"/>
<path d="M657.12 536.4L421.12 535.9C400.62 535.5 384.32 519.5 382.72 499.8C382.32 501.6 381.92 503.4 381.72 505.3C379.42 528.2 397.12 548.2 420.12 548.7L656.12 549.2L658.62 524.4H658.32L657.12 536.4Z" fill="#23BFD4"/>
<path d="M447.02 523.9C424.02 523.4 406.32 503.4 408.62 480.5C408.92 477.2 409.72 474.1 410.72 471.2C395.42 475.3 383.32 488.4 381.62 505.3C379.32 528.2 397.02 548.2 420.02 548.7L656.02 549.2L658.52 524.4L447.02 523.9Z" stroke="#151515" stroke-width="4" stroke-miterlimit="10" stroke-linecap="round" stroke-linejoin="round"/>
<path d="M656.02 549.1L420.02 548.6C397.02 548.1 379.32 528.1 381.62 505.2C383.92 482.3 405.32 466.3 427.92 470.4L660.52 504.2L656.02 549.1Z" stroke="#151515" stroke-width="4" stroke-miterlimit="10" stroke-linecap="round" stroke-linejoin="round"/>
<path d="M200.32 371.6L176.72 360.6C175.22 359.9 174.52 358.1 175.22 356.6C175.92 355.1 177.72 354.4 179.22 355.1L202.82 366.1C204.32 366.8 205.02 368.6 204.32 370.1C203.62 371.6 201.82 372.3 200.32 371.6Z" stroke="#151515" stroke-width="4" stroke-miterlimit="10" stroke-linecap="round" stroke-linejoin="round"/>
<path d="M202.92 366.1L179.32 355.1C177.82 354.4 177.12 352.6 177.82 351.1C178.52 349.6 180.32 348.9 181.82 349.6L205.42 360.6C206.92 361.3 207.62 363.1 206.92 364.6C206.22 366.2 204.42 366.8 202.92 366.1Z" stroke="#151515" stroke-width="4" stroke-miterlimit="10" stroke-linecap="round" stroke-linejoin="round"/>
<path d="M205.42 360.7L181.82 349.7C180.32 349 179.62 347.2 180.32 345.7C181.02 344.2 182.82 343.5 184.32 344.2L207.92 355.2C209.42 355.9 210.12 357.7 209.42 359.2C208.72 360.8 206.92 361.4 205.42 360.7Z" stroke="#151515" stroke-width="4" stroke-miterlimit="10" stroke-linecap="round" stroke-linejoin="round"/>
<path d="M208.62 355.4L184.02 343.9C182.32 343.1 181.52 341.1 182.32 339.3L225.92 245.8C226.72 244.1 228.72 243.3 230.52 244.1L255.12 255.6C256.82 256.4 257.62 258.4 256.82 260.2L213.22 353.8C212.42 355.5 210.32 356.2 208.62 355.4Z" fill="#31E5FE"/>
<path d="M255.12 255.7L230.52 244.2C230.32 244.1 230.12 244 229.82 244L244.32 250.8C246.02 251.6 246.82 253.6 246.02 255.4L202.42 348.9C201.72 350.4 200.12 351.2 198.52 350.8L208.62 355.5C210.32 356.3 212.42 355.6 213.22 353.8L256.82 260.3C257.62 258.6 256.82 256.5 255.12 255.7Z" fill="#23BFD4"/>
<path d="M208.62 355.4L184.02 343.9C182.32 343.1 181.52 341.1 182.32 339.3L225.92 245.8C226.72 244.1 228.72 243.3 230.52 244.1L255.12 255.6C256.82 256.4 257.62 258.4 256.82 260.2L213.22 353.8C212.42 355.5 210.32 356.2 208.62 355.4Z" stroke="#151515" stroke-width="4" stroke-miterlimit="10" stroke-linecap="round" stroke-linejoin="round"/>
<path d="M442.02 495.2C440.32 486.2 439.42 476.9 439.42 467.4C439.42 411.7 480.82 352.8 480.82 352.8L457.12 333.4L436.32 354.4C422.12 370.1 395.42 373 376.92 362.8L236.82 299.9L217.72 338.8L330.32 404.4C366.22 428.6 388.42 468.6 389.72 511.9L389.92 515.2C390.92 530.5 404.32 541.9 419.52 540.6C435.22 539.2 446.42 524.9 444.12 509.3L442.02 495.2Z" fill="#31E5FE"/>
<path d="M403.82 514.6L396.72 510.9C395.22 462.2 400.42 422.7 339.92 386.7L223.12 327.9L217.82 338.8L330.42 404.4C366.32 428.6 386.22 461.7 389.42 504.7L391.82 506.4C392.52 517.4 399.62 526.4 409.32 530.1C406.12 525.7 404.12 520.4 403.82 514.6Z" fill="#23BFD4"/>
<path d="M442.02 495.2C440.32 486.2 439.42 476.9 439.42 467.4C439.42 411.7 480.82 352.8 480.82 352.8L475.52 348.5C471.52 354.4 423.52 407.8 423.52 460.4C423.52 469.9 415.62 486.2 417.32 495.2L433.62 499.8C436.02 515.4 424.72 529.7 409.02 531.1C403.72 531.6 398.72 530.5 394.32 528.3C399.62 536.4 409.22 541.5 419.52 540.5C435.22 539.1 446.42 524.8 444.12 509.2L442.02 495.2Z" fill="#23BFD4"/>
<path d="M319.72 395L218.92 336.3L217.72 338.9L330.32 404.5C333.52 406.6 336.52 408.9 339.42 411.2C333.42 405.2 326.92 399.8 319.72 395Z" fill="#23BFD4"/>
<g opacity="0.83">
<g opacity="0.83">
<g opacity="0.83">
<path opacity="0.83" d="M386.12 484.6C388.22 493.5 389.52 502.6 389.82 511.9L390.02 515.2C390.42 521.4 392.92 527 396.72 531.4C395.72 515.1 392.02 499.4 386.12 484.6Z" fill="#FC8686"/>
</g>
<g opacity="0.83">
<path opacity="0.83" d="M382.82 372.2C403.12 383.4 428.52 376.5 444.12 359.3L462.12 337.4L457.12 333.3L436.32 354.3C422.12 370 395.42 372.9 376.92 362.7L236.82 299.8L234.02 305.4L382.82 372.2Z" fill="#86F5FC"/>
</g>
</g>
</g>
<path d="M230.02 341.5L247.72 304.7L232.92 298.2L214.52 335.5L230.02 341.5Z" fill="#23BFD4"/>
<path d="M442.02 495.2C440.32 486.2 439.42 476.9 439.42 467.4C439.42 411.7 480.82 352.8 480.82 352.8L457.12 333.4L436.32 354.4C422.12 370.1 395.42 373 376.92 362.8L236.82 299.9L217.72 338.8L330.32 404.4C366.22 428.6 388.42 468.6 389.72 511.9L389.92 515.2C390.92 530.5 404.32 541.9 419.52 540.6C435.22 539.2 446.42 524.9 444.12 509.3L442.02 495.2Z" stroke="#151515" stroke-width="4" stroke-miterlimit="10" stroke-linecap="round" stroke-linejoin="round"/>
<path d="M264.72 208.7L290.02 65.2L267.12 61.2L239.72 216.8L239.02 220.7C238.22 225.3 240.22 229.8 243.82 231.4L260.32 238.7C264.12 240.4 268.12 235.9 267.02 231.3C265.22 224 263.62 215.1 264.72 208.7Z" fill="#242424"/>
<path d="M264.72 208.7L290.02 65.2L267.12 61.2L266.32 65.9L280.62 68.4L255.22 211.8C254.12 218.2 255.62 227.1 257.42 234.3C257.72 235.3 257.62 236.4 257.42 237.3L260.22 238.5C264.02 240.2 268.02 235.7 266.92 231.1C265.22 224 263.62 215.1 264.72 208.7Z" fill="#1A1A1A"/>
<path d="M264.72 208.7L290.02 65.2L267.12 61.2L239.72 216.8L239.02 220.7C238.22 225.3 240.22 229.8 243.82 231.4L260.32 238.7C264.12 240.4 268.12 235.9 267.02 231.3C265.22 224 263.62 215.1 264.72 208.7Z" stroke="#151515" stroke-width="4" stroke-miterlimit="10" stroke-linecap="round" stroke-linejoin="round"/>
<path d="M255.12 256L232.82 247C228.22 245.1 226.02 239.9 227.82 235.3C229.72 230.7 234.92 228.5 239.52 230.3L261.82 239.3C266.42 241.2 268.62 246.4 266.82 251C265.02 255.6 259.72 257.8 255.12 256Z" fill="#242424"/>
<path d="M261.92 239.3L254.12 236.1C256.52 238.6 257.42 242.4 256.02 245.8C254.12 250.4 248.92 252.6 244.32 250.8L229.92 245C230.72 245.8 231.82 246.5 232.92 247L255.22 256C259.82 257.9 265.12 255.6 266.92 251C268.72 246.4 266.52 241.1 261.92 239.3Z" fill="#1A1A1A"/>
<path d="M255.12 256L232.82 247C228.22 245.1 226.02 239.9 227.82 235.3C229.72 230.7 234.92 228.5 239.52 230.3L261.82 239.3C266.42 241.2 268.62 246.4 266.82 251C265.02 255.6 259.72 257.8 255.12 256Z" stroke="#151515" stroke-width="4" stroke-miterlimit="10" stroke-linecap="round" stroke-linejoin="round"/>
<path d="M286.218 85.2115C292.46 81.8932 293.948 72.4825 289.54 64.1922C285.133 55.9018 276.5 51.8712 270.258 55.1895C264.016 58.5078 262.529 67.9185 266.936 76.2088C271.343 84.4992 279.976 88.5298 286.218 85.2115Z" fill="#151515"/>
<path d="M286.227 84.6094C292.469 81.2911 293.956 71.8804 289.549 63.5901C285.142 55.2997 276.509 51.2691 270.267 54.5874C264.025 57.9057 262.537 67.3164 266.944 75.6067C271.351 83.897 279.984 87.9277 286.227 84.6094Z" stroke="#151515" stroke-width="4" stroke-miterlimit="10" stroke-linecap="round" stroke-linejoin="round"/>
<path d="M508.42 410.3C506.42 407.1 504.12 404.1 501.42 401.5C496.22 396.4 491.12 391.3 486.02 386.2H486.12L482.22 379.5C480.32 376.2 476.12 375.1 472.92 377C469.62 378.9 468.52 383.1 470.42 386.3L474.32 393H474.42C476.32 400 478.12 407 480.02 414C480.92 417.6 482.32 421.2 484.22 424.5C492.82 440.2 491.52 437.1 502.82 454L524.92 441.3C515.62 423 517.72 425.7 508.42 410.3Z" fill="#31E5FE"/>
<path opacity="0.95" d="M476.32 383.3L480.22 390H480.12C485.22 395.1 490.32 400.2 495.52 405.3C498.22 407.9 500.52 410.9 502.52 414.1C511.72 429.3 509.82 426.8 518.62 444.6L524.62 441.1C515.62 422.9 517.62 425.6 508.32 410.3C506.32 407.1 504.02 404.1 501.32 401.5C496.12 396.4 491.02 391.3 485.92 386.2H486.02L482.12 379.5C480.22 376.2 476.02 375.1 472.82 377C471.62 377.7 470.62 378.7 470.12 379.9C472.62 379.8 475.02 381 476.32 383.3Z" fill="#23BFD4"/>
<path d="M508.42 410.3C506.42 407.1 504.12 404.1 501.42 401.5C496.22 396.4 491.12 391.3 486.02 386.2H486.12L482.22 379.5C480.32 376.2 476.12 375.1 472.92 377C469.62 378.9 468.52 383.1 470.42 386.3L474.32 393H474.42C476.32 400 478.12 407 480.02 414C480.92 417.6 482.32 421.2 484.22 424.5C492.82 440.2 491.52 437.1 502.82 454L524.92 441.3C515.62 423 517.72 425.7 508.42 410.3Z" stroke="#151515" stroke-width="4" stroke-miterlimit="10" stroke-linecap="round" stroke-linejoin="round"/>
<path d="M530.22 454.6C524.62 459.2 518.32 462.9 511.52 465.4C508.32 466.4 504.22 464.7 502.62 462C501.02 459.3 501.62 454.9 504.12 452.6C509.72 448 516.02 444.3 522.82 441.8C526.02 440.8 530.12 442.5 531.72 445.2C533.22 447.9 532.72 452.3 530.22 454.6Z" fill="#31E5FE"/>
<path d="M530.22 454.6C524.62 459.2 518.32 462.9 511.52 465.4C508.32 466.4 504.22 464.7 502.62 462C501.02 459.3 501.62 454.9 504.12 452.6C509.72 448 516.02 444.3 522.82 441.8C526.02 440.8 530.12 442.5 531.72 445.2C533.22 447.9 532.72 452.3 530.22 454.6Z" stroke="#151515" stroke-width="4" stroke-miterlimit="10" stroke-linecap="round" stroke-linejoin="round"/>
<path d="M522.42 483.2C522.12 484.4 521.92 485.6 521.92 486.9C521.92 494.7 528.22 501 536.02 501C543.72 501 549.92 494.9 550.12 487.2L522.42 483.2Z" fill="#191919"/>
<path d="M522.42 483.2C522.12 484.4 521.92 485.6 521.92 486.9C521.92 494.7 528.22 501 536.02 501C543.72 501 549.92 494.9 550.12 487.2L522.42 483.2Z" stroke="#151515" stroke-width="4" stroke-miterlimit="10" stroke-linecap="round" stroke-linejoin="round"/>
<path d="M417.32 541.1C433.281 541.1 446.22 528.161 446.22 512.2C446.22 496.239 433.281 483.3 417.32 483.3C401.359 483.3 388.42 496.239 388.42 512.2C388.42 528.161 401.359 541.1 417.32 541.1Z" fill="#242424"/>
<path d="M417.32 541.1C433.281 541.1 446.22 528.161 446.22 512.2C446.22 496.239 433.281 483.3 417.32 483.3C401.359 483.3 388.42 496.239 388.42 512.2C388.42 528.161 401.359 541.1 417.32 541.1Z" stroke="#151515" stroke-width="4" stroke-miterlimit="10" stroke-linecap="round" stroke-linejoin="round"/>
<path d="M417.32 541.1C433.281 541.1 446.22 528.161 446.22 512.2C446.22 496.239 433.281 483.3 417.32 483.3C401.359 483.3 388.42 496.239 388.42 512.2C388.42 528.161 401.359 541.1 417.32 541.1Z" stroke="#151515" stroke-width="4" stroke-miterlimit="10" stroke-linecap="round" stroke-linejoin="round"/>
<path opacity="0.92" d="M417.32 529.2C426.709 529.2 434.32 521.589 434.32 512.2C434.32 502.811 426.709 495.2 417.32 495.2C407.931 495.2 400.32 502.811 400.32 512.2C400.32 521.589 407.931 529.2 417.32 529.2Z" fill="#191919"/>
<path d="M539.72 492C536.72 493.8 532.82 492.7 531.02 489.7L521.02 472.3L532.02 465.9L542.02 483.3C543.72 486.4 542.72 490.3 539.72 492Z" fill="#191919"/>
<path d="M539.72 492C536.72 493.8 532.82 492.7 531.02 489.7L521.02 472.3L532.02 465.9L542.02 483.3C543.72 486.4 542.72 490.3 539.72 492Z" stroke="#151515" stroke-width="4" stroke-miterlimit="10" stroke-linecap="round" stroke-linejoin="round"/>
<path d="M537.12 491.6C539.826 491.6 542.02 489.406 542.02 486.7C542.02 483.994 539.826 481.8 537.12 481.8C534.414 481.8 532.22 483.994 532.22 486.7C532.22 489.406 534.414 491.6 537.12 491.6Z" stroke="#151515" stroke-width="4" stroke-miterlimit="10" stroke-linecap="round" stroke-linejoin="round"/>
<path d="M476.12 386.7C478.44 386.7 480.32 384.82 480.32 382.5C480.32 380.18 478.44 378.3 476.12 378.3C473.8 378.3 471.92 380.18 471.92 382.5C471.92 384.82 473.8 386.7 476.12 386.7Z" stroke="#151515" stroke-width="4" stroke-miterlimit="10" stroke-linecap="round" stroke-linejoin="round"/>
<path d="M425.72 497.5C425.72 497.5 419.72 484.2 424.32 454.2C429.02 424.2 434.22 410.9 434.22 410.9C434.22 410.9 427.12 412.8 417.22 437.1C407.32 461.6 406.42 497.5 406.42 497.5H425.72Z" fill="#191919"/>
<path d="M425.72 497.5C425.72 497.5 419.72 484.2 424.32 454.2C429.02 424.2 434.22 410.9 434.22 410.9C434.22 410.9 427.12 412.8 417.22 437.1C408.22 459.4 406.62 493.3 406.42 499.1C402.62 502.2 400.22 506.9 400.22 512.2C400.22 521.6 407.82 529.2 417.22 529.2C426.62 529.2 434.22 521.6 434.22 512.2C434.32 505.9 430.82 500.4 425.72 497.5Z" stroke="#151515" stroke-width="4" stroke-miterlimit="10" stroke-linecap="round" stroke-linejoin="round"/>
<path d="M419.32 520.7L332.92 518.3C330.52 518.2 328.52 515.8 328.52 512.8C328.52 509.8 330.52 507.3 332.92 507.3L419.32 504.9C421.82 504.8 423.92 507.3 423.92 510.5V515.4C424.02 518.3 421.92 520.8 419.32 520.7Z" fill="#242424"/>
<path d="M419.32 520.7L332.92 518.3C330.52 518.2 328.52 515.8 328.52 512.8C328.52 509.8 330.52 507.3 332.92 507.3L419.32 504.9C421.82 504.8 423.92 507.3 423.92 510.5V515.4C424.02 518.3 421.92 520.8 419.32 520.7Z" stroke="#151515" stroke-width="4" stroke-miterlimit="10" stroke-linecap="round" stroke-linejoin="round"/>
<path d="M413.12 512.7H424.02" stroke="#151515" stroke-width="4" stroke-miterlimit="10" stroke-linecap="round" stroke-linejoin="round"/>
<path d="M341.12 534H340.72C337.02 534 333.92 531 333.92 527.2V498.2C333.92 494.5 336.92 491.4 340.72 491.4H341.12C344.82 491.4 347.92 494.4 347.92 498.2V527.2C347.92 531 344.82 534 341.12 534Z" fill="#161616"/>
<path d="M341.12 534H340.72C337.02 534 333.92 531 333.92 527.2V498.2C333.92 494.5 336.92 491.4 340.72 491.4H341.12C344.82 491.4 347.92 494.4 347.92 498.2V527.2C347.92 531 344.82 534 341.12 534Z" stroke="#151515" stroke-width="4" stroke-miterlimit="10" stroke-linecap="round" stroke-linejoin="round"/>
<path d="M512.52 268L529.42 280.4" stroke="#151515" stroke-width="4" stroke-miterlimit="10" stroke-linecap="round" stroke-linejoin="round"/>
<path d="M529.42 281.9L535.22 286" stroke="#151515" stroke-width="6" stroke-miterlimit="10" stroke-linecap="round" stroke-linejoin="round"/>
<path opacity="0.46" d="M525.82 262.6L564.72 211.5" stroke="white" stroke-width="3" stroke-miterlimit="10" stroke-linecap="round" stroke-linejoin="round"/>
<path opacity="0.46" d="M472.02 333.2L513.92 277.8" stroke="white" stroke-width="3" stroke-miterlimit="10" stroke-linecap="round" stroke-linejoin="round"/>
<path d="M245.521 82.2425L225.653 91.211L227.668 95.6769L247.537 86.7084L245.521 82.2425Z" stroke="#151515" stroke-width="6" stroke-miterlimit="10" stroke-linecap="round" stroke-linejoin="round"/>
<path d="M275.22 78.2L249.62 89.7L244.62 78.6L270.12 67.1C272.62 66 275.62 67.1 276.72 69.6L277.62 71.5C278.82 74.1 277.72 77.1 275.22 78.2Z" fill="#151515"/>
<path d="M275.22 78.2L249.62 89.7L244.62 78.6L270.12 67.1C272.62 66 275.62 67.1 276.72 69.6L277.62 71.5C278.82 74.1 277.72 77.1 275.22 78.2Z" stroke="#151515" stroke-width="4" stroke-miterlimit="10" stroke-linecap="round" stroke-linejoin="round"/>
<path d="M224.72 100.6C227.868 100.6 230.42 98.0033 230.42 94.8C230.42 91.5968 227.868 89 224.72 89C221.572 89 219.02 91.5968 219.02 94.8C219.02 98.0033 221.572 100.6 224.72 100.6Z" fill="#5E5E5E"/>
<path d="M224.72 102.4C228.862 102.4 232.22 98.9974 232.22 94.8C232.22 90.6026 228.862 87.2 224.72 87.2C220.578 87.2 217.22 90.6026 217.22 94.8C217.22 98.9974 220.578 102.4 224.72 102.4Z" stroke="#151515" stroke-width="4" stroke-miterlimit="10" stroke-linecap="round" stroke-linejoin="round"/>
<path d="M224.72 102.4C228.862 102.4 232.22 98.9974 232.22 94.8C232.22 90.6026 228.862 87.2 224.72 87.2C220.578 87.2 217.22 90.6026 217.22 94.8C217.22 98.9974 220.578 102.4 224.72 102.4Z" fill="#151515"/>
<path d="M309.662 52.647L286.056 63.3022L288.401 68.4972L312.007 57.842L309.662 52.647Z" stroke="#151515" stroke-width="7" stroke-miterlimit="10" stroke-linecap="round" stroke-linejoin="round"/>
<path d="M283.72 69.1C286.316 69.1 288.42 66.951 288.42 64.3C288.42 61.649 286.316 59.5 283.72 59.5C281.124 59.5 279.02 61.649 279.02 64.3C279.02 66.951 281.124 69.1 283.72 69.1Z" fill="#5E5E5E"/>
<path d="M283.72 70.6C287.144 70.6 289.92 67.7794 289.92 64.3C289.92 60.8206 287.144 58 283.72 58C280.296 58 277.52 60.8206 277.52 64.3C277.52 67.7794 280.296 70.6 283.72 70.6Z" stroke="#151515" stroke-width="4" stroke-miterlimit="10" stroke-linecap="round" stroke-linejoin="round"/>
<path d="M283.72 70.6C287.144 70.6 289.92 67.7794 289.92 64.3C289.92 60.8206 287.144 58 283.72 58C280.296 58 277.52 60.8206 277.52 64.3C277.52 67.7794 280.296 70.6 283.72 70.6Z" fill="#151515"/>
<path d="M310.32 63C315.235 63 319.22 58.9706 319.22 54C319.22 49.0294 315.235 45 310.32 45C305.405 45 301.42 49.0294 301.42 54C301.42 58.9706 305.405 63 310.32 63Z" fill="#151515"/>
<path opacity="0.46" d="M247.62 80.7L262.22 74" stroke="white" stroke-width="2" stroke-miterlimit="10" stroke-linecap="round" stroke-linejoin="round"/>
<path opacity="0.46" d="M296.02 60.6L299.12 59.2" stroke="white" stroke-width="2" stroke-miterlimit="10" stroke-linecap="round" stroke-linejoin="round"/>
<path opacity="0.46" d="M247.92 204.6L246.62 212.2C246.62 212.2 245.52 219.4 246.22 223.2C246.92 227 250.02 228.1 250.02 228.1" stroke="white" stroke-width="2" stroke-miterlimit="10" stroke-linecap="round" stroke-linejoin="round"/>
<path opacity="0.46" d="M267.52 89L249.02 197" stroke="white" stroke-width="2" stroke-miterlimit="10" stroke-linecap="round" stroke-linejoin="round"/>
<path opacity="0.46" d="M169.92 376.3C169.92 376.3 172.92 370.6 177.62 370.6" stroke="white" stroke-width="2" stroke-miterlimit="10" stroke-linecap="round" stroke-linejoin="round"/>
<path opacity="0.46" d="M237.42 234.8C237.42 234.8 234.32 234.8 233.32 237.7C232.92 239.1 233.22 240.8 234.62 242.1" stroke="white" stroke-width="2" stroke-miterlimit="10" stroke-linecap="round" stroke-linejoin="round"/>
<path opacity="0.5" d="M483.42 401.2C483.42 401.2 485.42 410.7 486.92 415C488.42 419.2 501.62 440.2 501.62 440.2" stroke="white" stroke-width="3" stroke-miterlimit="10" stroke-linecap="round" stroke-linejoin="round"/>
<path opacity="0.5" d="M507.72 459.4C507.72 459.4 507.12 456.9 510.52 454.2C512.42 452.7 521.92 447.1 521.92 447.1" stroke="white" stroke-width="3" stroke-miterlimit="10" stroke-linecap="round" stroke-linejoin="round"/>
<path opacity="0.46" d="M192.42 338.8L231.02 256.6" stroke="white" stroke-width="2" stroke-miterlimit="10" stroke-linecap="round" stroke-linejoin="round"/>
<path opacity="0.46" d="M272.62 60.6C272.62 60.6 274.62 56.7 280.62 58.1" stroke="white" stroke-width="2" stroke-miterlimit="10" stroke-linecap="round" stroke-linejoin="round"/>
<path d="M121.02 548.7C138.693 548.7 153.02 534.373 153.02 516.7C153.02 499.027 138.693 484.7 121.02 484.7C103.347 484.7 89.02 499.027 89.02 516.7C89.02 534.373 103.347 548.7 121.02 548.7Z" fill="#242424"/>
<path d="M121.02 548.7C138.693 548.7 153.02 534.373 153.02 516.7C153.02 499.027 138.693 484.7 121.02 484.7C103.347 484.7 89.02 499.027 89.02 516.7C89.02 534.373 103.347 548.7 121.02 548.7Z" stroke="#151515" stroke-width="4" stroke-miterlimit="10" stroke-linecap="round" stroke-linejoin="round"/>
<path d="M208.82 565L151.92 528C142.82 522.1 142.12 509 150.52 502.1L203.22 459.4L194.02 448L141.32 490.7C132.92 497.5 120.22 494.1 116.32 484L92.02 420.7L78.32 426L102.62 489.4C106.52 499.5 99.42 510.5 88.52 511.1L20.72 514.7L21.52 529.4L89.32 525.8C100.22 525.2 108.42 535.4 105.62 545.9L88.02 611.5L102.22 615.3L119.82 549.7C122.62 539.2 134.92 534.5 144.02 540.4L200.92 577.4L208.82 565Z" fill="#B7B7B7"/>
<path d="M92.92 608.6L109.42 546.9C111.02 540.8 109.82 534.5 106.02 529.6C102.22 524.6 96.42 521.8 90.22 521.8C89.82 521.8 89.52 521.8 89.1199 521.8L25.32 525.1L25.02 518.4L88.82 515.1C95.32 514.8 101.02 511.5 104.52 506C108.02 500.6 108.72 494 106.42 487.9L83.52 428.3L89.72 425.9L112.62 485.5C115.62 493.3 122.92 498.3 131.32 498.3C135.92 498.3 140.22 496.8 143.82 493.8L193.42 453.6L197.62 458.8L148.02 499C143.02 503.1 140.32 509.1 140.62 515.6C140.92 522.1 144.22 527.8 149.72 531.3L203.32 566.1L199.72 571.7L146.12 536.9C142.82 534.8 139.12 533.7 135.22 533.7C126.12 533.7 118.22 539.8 115.82 548.5L99.32 610.2L92.92 608.6Z" fill="#A9A8A9"/>
<path d="M208.82 565L151.92 528C142.82 522.1 142.12 509 150.52 502.1L203.22 459.4L194.02 448L141.32 490.7C132.92 497.5 120.22 494.1 116.32 484L92.02 420.7L78.32 426L102.62 489.4C106.52 499.5 99.42 510.5 88.52 511.1L20.72 514.7L21.52 529.4L89.32 525.8C100.22 525.2 108.42 535.4 105.62 545.9L88.02 611.5L102.22 615.3L119.82 549.7C122.62 539.2 134.92 534.5 144.02 540.4L200.92 577.4L208.82 565Z" stroke="#151515" stroke-width="4" stroke-miterlimit="10" stroke-linecap="round" stroke-linejoin="round"/>
<path d="M151.52 402.7C88.72 385.9 23.82 423.3 7.01997 486.1C-9.78003 548.9 27.62 613.8 90.42 630.6C153.22 647.4 218.12 610 234.92 547.2C251.82 484.4 214.42 419.6 151.52 402.7ZM95.12 613.3C41.82 599 10.12 544.2 24.42 490.8C38.72 437.5 93.52 405.8 146.92 420.1C200.32 434.4 231.92 489.2 217.62 542.6C203.32 595.9 148.42 627.6 95.12 613.3Z" fill="#242424"/>
<path opacity="0.92" d="M151.52 402.7C88.72 385.9 23.82 423.3 7.01997 486.1C-9.78003 548.9 27.62 613.8 90.42 630.6C153.22 647.4 218.12 610 234.92 547.2C251.82 484.4 214.42 419.6 151.52 402.7ZM227.22 545.2C214.32 593.2 170.62 626.7 120.92 626.7C111.32 626.7 101.82 625.4 92.52 622.9C64.22 615.3 40.52 597.1 25.82 571.6C11.12 546.1 7.21997 516.5 14.82 488.2C27.72 440.2 71.42 406.7 121.12 406.7C130.72 406.7 140.22 408 149.52 410.5C177.82 418.1 201.52 436.3 216.22 461.8C230.92 487.3 234.82 516.8 227.22 545.2Z" fill="#191919"/>
<path d="M121.02 616.7C176.248 616.7 221.02 571.928 221.02 516.7C221.02 461.472 176.248 416.7 121.02 416.7C65.7915 416.7 21.02 461.472 21.02 516.7C21.02 571.928 65.7915 616.7 121.02 616.7Z" stroke="#151515" stroke-width="4" stroke-miterlimit="10" stroke-linecap="round" stroke-linejoin="round"/>
<path d="M151.52 402.7C88.72 385.9 23.82 423.3 7.01997 486.1C-9.78003 548.9 27.62 613.8 90.42 630.6C153.22 647.4 218.12 610 234.92 547.2C251.82 484.4 214.42 419.6 151.52 402.7ZM95.12 613.3C41.82 599 10.12 544.2 24.42 490.8C38.72 437.5 93.52 405.8 146.92 420.1C200.32 434.4 231.92 489.2 217.62 542.6C203.32 595.9 148.42 627.6 95.12 613.3Z" stroke="#151515" stroke-width="4" stroke-miterlimit="10" stroke-linecap="round" stroke-linejoin="round"/>
<path d="M121.02 634.7C186.19 634.7 239.02 581.87 239.02 516.7C239.02 451.53 186.19 398.7 121.02 398.7C55.8504 398.7 3.01996 451.53 3.01996 516.7C3.01996 581.87 55.8504 634.7 121.02 634.7Z" stroke="#151515" stroke-width="4" stroke-miterlimit="10" stroke-linecap="round" stroke-linejoin="round"/>
<path d="M121.02 634.7C186.19 634.7 239.02 581.87 239.02 516.7C239.02 451.53 186.19 398.7 121.02 398.7C55.8504 398.7 3.01996 451.53 3.01996 516.7C3.01996 581.87 55.8504 634.7 121.02 634.7Z" stroke="#151515" stroke-width="6" stroke-miterlimit="10" stroke-linecap="round" stroke-linejoin="round"/>
<path d="M146.82 420.1C93.52 405.8 38.62 437.5 24.32 490.8C10.02 544.1 41.72 599 95.02 613.3C148.32 627.6 203.22 595.9 217.52 542.6C231.92 489.2 200.22 434.4 146.82 420.1ZM210.82 540.8C197.52 590.3 146.42 619.8 96.92 606.6C47.42 593.4 17.92 542.2 31.12 492.7C44.32 443.2 95.52 413.7 145.02 426.9C194.62 440.2 224.12 491.2 210.82 540.8Z" fill="#A9A8A9"/>
<path d="M146.82 420.1C93.52 405.8 38.62 437.5 24.32 490.8C10.02 544.1 41.72 599 95.02 613.3C148.32 627.6 203.22 595.9 217.52 542.6C231.92 489.2 200.22 434.4 146.82 420.1ZM210.82 540.8C197.52 590.3 146.42 619.8 96.92 606.6C47.42 593.4 17.92 542.2 31.12 492.7C44.32 443.2 95.52 413.7 145.02 426.9C194.62 440.2 224.12 491.2 210.82 540.8Z" stroke="#151515" stroke-width="4" stroke-miterlimit="10" stroke-linecap="round" stroke-linejoin="round"/>
<path d="M121.02 534.6C130.906 534.6 138.92 526.586 138.92 516.7C138.92 506.814 130.906 498.8 121.02 498.8C111.134 498.8 103.12 506.814 103.12 516.7C103.12 526.586 111.134 534.6 121.02 534.6Z" fill="#242424"/>
<path d="M121.02 534.6C130.906 534.6 138.92 526.586 138.92 516.7C138.92 506.814 130.906 498.8 121.02 498.8C111.134 498.8 103.12 506.814 103.12 516.7C103.12 526.586 111.134 534.6 121.02 534.6Z" stroke="#151515" stroke-width="3" stroke-miterlimit="10" stroke-linecap="round" stroke-linejoin="round"/>
<path opacity="0.92" d="M132.92 519.9C132.22 515.7 133.72 511.6 136.62 508.8C134.42 504.5 130.52 501.1 125.52 499.7C124.22 499.3 122.92 499.2 121.62 499.1C121.62 499.2 121.52 499.3 121.52 499.4C119.22 505.6 112.62 508.8 106.42 506.9C105.42 508.4 104.62 510.1 104.12 512C102.92 516.5 103.62 521 105.62 524.8C105.72 524.8 105.82 524.7 105.92 524.7C112.42 523.6 118.52 527.7 120.02 534C126.42 534.4 132.52 531.2 135.92 525.8C134.42 524.3 133.32 522.3 132.92 519.9Z" fill="#191919"/>
<path d="M121.02 522.4C124.168 522.4 126.72 519.848 126.72 516.7C126.72 513.552 124.168 511 121.02 511C117.872 511 115.32 513.552 115.32 516.7C115.32 519.848 117.872 522.4 121.02 522.4Z" fill="#151515"/>
<path d="M121.02 522.4C124.168 522.4 126.72 519.848 126.72 516.7C126.72 513.552 124.168 511 121.02 511C117.872 511 115.32 513.552 115.32 516.7C115.32 519.848 117.872 522.4 121.02 522.4Z" stroke="#151515" stroke-width="4" stroke-miterlimit="10" stroke-linecap="round" stroke-linejoin="round"/>
<path d="M132.92 519.9C132.22 515.7 133.72 511.6 136.62 508.8C134.42 504.5 130.52 501.1 125.52 499.7C124.22 499.3 122.92 499.2 121.62 499.1C121.62 499.2 121.52 499.3 121.52 499.4C119.22 505.6 112.62 508.8 106.42 506.9C105.42 508.4 104.62 510.1 104.12 512C102.92 516.5 103.62 521 105.62 524.8C105.72 524.8 105.82 524.7 105.92 524.7C112.42 523.6 118.52 527.7 120.02 534C126.42 534.4 132.52 531.2 135.92 525.8C134.42 524.3 133.32 522.3 132.92 519.9Z" stroke="#151515" stroke-width="3" stroke-miterlimit="10" stroke-linecap="round" stroke-linejoin="round"/>
<path opacity="0.67" d="M72.32 418.1C75.22 416.7 78.22 415.3 81.32 414.2" stroke="white" stroke-width="2" stroke-miterlimit="10" stroke-linecap="round" stroke-linejoin="round"/>
<path opacity="0.67" d="M14.72 488.2C21.72 462.1 37.82 440.3 59.02 425.8" stroke="white" stroke-width="2" stroke-miterlimit="10" stroke-linecap="round" stroke-linejoin="round"/>
<path d="M669.72 556.7C687.393 556.7 701.72 542.373 701.72 524.7C701.72 507.027 687.393 492.7 669.72 492.7C652.047 492.7 637.72 507.027 637.72 524.7C637.72 542.373 652.047 556.7 669.72 556.7Z" fill="#242424"/>
<path d="M669.72 556.7C687.393 556.7 701.72 542.373 701.72 524.7C701.72 507.027 687.393 492.7 669.72 492.7C652.047 492.7 637.72 507.027 637.72 524.7C637.72 542.373 652.047 556.7 669.72 556.7Z" stroke="#151515" stroke-width="4" stroke-miterlimit="10" stroke-linecap="round" stroke-linejoin="round"/>
<path d="M769.52 534.8L702.72 523C692.02 521.1 686.22 509.3 691.42 499.7L723.32 439.8L710.32 432.9L678.42 492.8C673.32 502.4 660.32 504.2 652.82 496.4L605.62 447.7L595.02 457.9L642.22 506.7C649.82 514.5 647.52 527.4 637.72 532.2L576.72 562L583.12 575.2L644.12 545.4C653.92 540.6 665.42 546.8 667.02 557.6L676.42 624.8L690.92 622.8L681.52 555.6C680.02 544.8 689.42 535.7 700.12 537.6L766.92 549.4L769.52 534.8Z" fill="#B7B7B7"/>
<path d="M679.82 620.2L670.92 556.9C670.12 551.3 667.12 546.4 662.42 543.2C657.82 540 652.02 538.9 646.62 540.2C645.12 540.5 643.72 541.1 642.32 541.7L584.92 569.7L582.02 563.7L639.42 535.7C645.22 532.9 649.22 527.6 650.32 521.2C651.42 514.8 649.52 508.5 645.02 503.8L600.62 457.9L605.42 453.3L649.82 499.2C654.72 504.3 661.82 506.4 668.72 504.8C674.32 503.5 679.12 499.8 681.82 494.7L711.82 438.3L717.72 441.4L687.72 497.8C684.72 503.5 684.52 510.1 687.42 516C690.22 521.8 695.52 525.8 701.92 526.9L764.82 538L763.62 544.6L700.72 533.5C698.02 533 695.32 533.1 692.72 533.7C682.52 536 675.92 545.6 677.42 556L686.32 619.3L679.82 620.2Z" fill="#A9A8A9"/>
<path d="M769.52 534.8L702.72 523C692.02 521.1 686.22 509.3 691.42 499.7L723.32 439.8L710.32 432.9L678.42 492.8C673.32 502.4 660.32 504.2 652.82 496.4L605.62 447.7L595.02 457.9L642.22 506.7C649.82 514.5 647.52 527.4 637.72 532.2L576.72 562L583.12 575.2L644.12 545.4C653.92 540.6 665.42 546.8 667.02 557.6L676.42 624.8L690.92 622.8L681.52 555.6C680.02 544.8 689.42 535.7 700.12 537.6L766.92 549.4L769.52 534.8Z" stroke="#151515" stroke-width="4" stroke-miterlimit="10" stroke-linecap="round" stroke-linejoin="round"/>
<path d="M653.32 407.9C588.92 417 543.82 476.7 552.92 541.2C562.02 605.7 621.72 650.6 686.22 641.6C750.72 632.6 795.72 572.7 786.62 508.3C777.52 443.9 717.82 398.8 653.32 407.9ZM683.72 623.7C629.02 631.4 578.42 593.3 570.82 538.6C563.12 483.9 601.22 433.3 655.92 425.7C710.62 418 761.22 456.1 768.82 510.8C776.52 565.5 738.42 616.1 683.72 623.7Z" fill="#242424"/>
<path opacity="0.92" d="M653.32 407.9C588.92 417 543.82 476.7 552.92 541.2C562.02 605.6 621.72 650.7 686.22 641.6C750.72 632.5 795.72 572.7 786.62 508.3C777.52 443.9 717.82 398.8 653.32 407.9ZM778.72 509.4C785.62 558.6 758.52 606.6 712.72 626C703.92 629.7 694.62 632.3 685.02 633.7C656.02 637.8 627.02 630.3 603.52 612.6C580.02 594.9 564.82 569.2 560.72 540.1C553.82 490.9 580.92 442.9 626.72 423.5C635.52 419.8 644.82 417.2 654.42 415.8C683.42 411.7 712.42 419.2 735.92 436.9C759.42 454.6 774.62 480.4 778.72 509.4Z" fill="#191919"/>
<path d="M669.72 624.7C724.948 624.7 769.72 579.928 769.72 524.7C769.72 469.472 724.948 424.7 669.72 424.7C614.491 424.7 569.72 469.472 569.72 524.7C569.72 579.928 614.491 624.7 669.72 624.7Z" stroke="#151515" stroke-width="4" stroke-miterlimit="10" stroke-linecap="round" stroke-linejoin="round"/>
<path d="M653.32 407.9C588.92 417 543.82 476.7 552.92 541.2C562.02 605.7 621.72 650.6 686.22 641.6C750.72 632.6 795.72 572.7 786.62 508.3C777.52 443.9 717.82 398.8 653.32 407.9ZM683.72 623.7C629.02 631.4 578.42 593.3 570.82 538.6C563.12 483.9 601.22 433.3 655.92 425.7C710.62 418 761.22 456.1 768.82 510.8C776.52 565.5 738.42 616.1 683.72 623.7Z" stroke="#151515" stroke-width="4" stroke-miterlimit="10" stroke-linecap="round" stroke-linejoin="round"/>
<path d="M669.72 642.7C734.89 642.7 787.72 589.87 787.72 524.7C787.72 459.53 734.89 406.7 669.72 406.7C604.55 406.7 551.72 459.53 551.72 524.7C551.72 589.87 604.55 642.7 669.72 642.7Z" stroke="#151515" stroke-width="4" stroke-miterlimit="10" stroke-linecap="round" stroke-linejoin="round"/>
<path d="M669.72 642.7C734.89 642.7 787.72 589.87 787.72 524.7C787.72 459.53 734.89 406.7 669.72 406.7C604.55 406.7 551.72 459.53 551.72 524.7C551.72 589.87 604.55 642.7 669.72 642.7Z" stroke="#151515" stroke-width="6" stroke-miterlimit="10" stroke-linecap="round" stroke-linejoin="round"/>
<path d="M655.82 425.7C601.12 433.4 563.02 484 570.72 538.6C578.42 593.3 629.02 631.4 683.62 623.7C738.22 616 776.42 565.4 768.72 510.8C761.12 456.1 710.52 418 655.82 425.7ZM761.82 511.8C768.92 562.6 733.42 609.7 682.62 616.8C631.82 623.9 584.72 588.4 577.62 537.6C570.52 486.8 606.02 439.7 656.82 432.6C707.62 425.5 754.72 461 761.82 511.8Z" fill="#A9A8A9"/>
<path d="M655.82 425.7C601.12 433.4 563.02 484 570.72 538.6C578.42 593.3 629.02 631.4 683.62 623.7C738.22 616 776.42 565.4 768.72 510.8C761.12 456.1 710.52 418 655.82 425.7ZM761.82 511.8C768.92 562.6 733.42 609.7 682.62 616.8C631.82 623.9 584.72 588.4 577.62 537.6C570.52 486.8 606.02 439.7 656.82 432.6C707.62 425.5 754.72 461 761.82 511.8Z" stroke="#151515" stroke-width="4" stroke-miterlimit="10" stroke-linecap="round" stroke-linejoin="round"/>
<path d="M669.72 542.6C679.606 542.6 687.62 534.586 687.62 524.7C687.62 514.814 679.606 506.8 669.72 506.8C659.834 506.8 651.82 514.814 651.82 524.7C651.82 534.586 659.834 542.6 669.72 542.6Z" fill="#242424"/>
<path d="M669.72 542.6C679.606 542.6 687.62 534.586 687.62 524.7C687.62 514.814 679.606 506.8 669.72 506.8C659.834 506.8 651.82 514.814 651.82 524.7C651.82 534.586 659.834 542.6 669.72 542.6Z" stroke="#151515" stroke-width="3" stroke-miterlimit="10" stroke-linecap="round" stroke-linejoin="round"/>
<path opacity="0.92" d="M682.02 523C679.72 519.4 679.52 515 681.12 511.4C677.42 508.3 672.52 506.7 667.42 507.4C666.12 507.6 664.82 507.9 663.62 508.4C663.62 508.5 663.62 508.6 663.62 508.8C663.92 515.4 659.02 520.9 652.62 521.6C652.32 523.4 652.22 525.3 652.52 527.2C653.12 531.8 655.52 535.7 658.82 538.4C658.92 538.3 659.02 538.3 659.12 538.2C664.62 534.7 671.92 536.1 675.72 541.3C681.72 539.1 686.12 533.8 687.12 527.6C685.12 526.5 683.32 525 682.02 523Z" fill="#191919"/>
<path d="M669.72 530.4C672.868 530.4 675.42 527.848 675.42 524.7C675.42 521.552 672.868 519 669.72 519C666.572 519 664.02 521.552 664.02 524.7C664.02 527.848 666.572 530.4 669.72 530.4Z" fill="#151515"/>
<path d="M669.72 530.4C672.868 530.4 675.42 527.848 675.42 524.7C675.42 521.552 672.868 519 669.72 519C666.572 519 664.02 521.552 664.02 524.7C664.02 527.848 666.572 530.4 669.72 530.4Z" stroke="#151515" stroke-width="4" stroke-miterlimit="10" stroke-linecap="round" stroke-linejoin="round"/>
<path d="M682.02 523C679.72 519.4 679.52 515 681.12 511.4C677.42 508.3 672.52 506.7 667.42 507.4C666.12 507.6 664.82 507.9 663.62 508.4C663.62 508.5 663.62 508.6 663.62 508.8C663.92 515.4 659.02 520.9 652.62 521.6C652.32 523.4 652.22 525.3 652.52 527.2C653.12 531.8 655.52 535.7 658.82 538.4C658.92 538.3 659.02 538.3 659.12 538.2C664.62 534.7 671.92 536.1 675.72 541.3C681.72 539.1 686.12 533.8 687.12 527.6C685.12 526.5 683.32 525 682.02 523Z" stroke="#151515" stroke-width="3" stroke-miterlimit="10" stroke-linecap="round" stroke-linejoin="round"/>
<path opacity="0.67" d="M676.92 414.9C677.72 415 678.52 415 679.42 415.1C683.82 415.5 688.02 416.1 692.32 417" stroke="white" stroke-width="2" stroke-miterlimit="10" stroke-linecap="round" stroke-linejoin="round"/>
<path opacity="0.67" d="M590.12 448.9C605.92 432.3 626.92 420.5 650.72 416.4" stroke="white" stroke-width="2" stroke-miterlimit="10" stroke-linecap="round" stroke-linejoin="round"/>
<path opacity="0.46" d="M419.22 444.6C419.22 444.6 415.02 456.9 413.12 472.2" stroke="white" stroke-width="2" stroke-miterlimit="10" stroke-linecap="round" stroke-linejoin="round"/>
<path opacity="0.46" d="M411.72 480C411.72 480 410.82 494.4 410.82 497" stroke="white" stroke-width="2" stroke-miterlimit="10" stroke-linecap="round" stroke-linejoin="round"/>
<defs>
<radialGradient id="paint0_radial" cx="0" cy="0" r="1" gradientUnits="userSpaceOnUse" gradientTransform="translate(399.5 395.5) rotate(90) scale(395.5)">
<stop stop-color="#31E5FE" stop-opacity="0.5"/>
<stop offset="1" stop-color="white" stop-opacity="0"/>
</radialGradient>
</defs>
</svg>
