<svg width="810" height="611" viewBox="0 0 810 611" fill="none" xmlns="http://www.w3.org/2000/svg">
<path d="M146.42 602.6C213.523 602.6 267.92 597.496 267.92 591.2C267.92 584.904 213.523 579.8 146.42 579.8C79.3174 579.8 24.92 584.904 24.92 591.2C24.92 597.496 79.3174 602.6 146.42 602.6Z" fill="#525456"/>
<path d="M687.62 611C754.723 611 809.12 605.896 809.12 599.6C809.12 593.304 754.723 588.2 687.62 588.2C620.517 588.2 566.12 593.304 566.12 599.6C566.12 605.896 620.517 611 687.62 611Z" fill="#525456"/>
<path d="M200.32 326.6L176.72 315.6C175.22 314.9 174.52 313.1 175.22 311.6C175.92 310.1 177.72 309.4 179.22 310.1L202.82 321.1C204.32 321.8 205.02 323.6 204.32 325.1C203.62 326.6 201.82 327.3 200.32 326.6Z" fill="#A9A8A9"/>
<path d="M202.92 321.1L179.32 310.1C177.82 309.4 177.12 307.6 177.82 306.1C178.52 304.6 180.32 303.9 181.82 304.6L205.42 315.6C206.92 316.3 207.62 318.1 206.92 319.6C206.22 321.2 204.42 321.8 202.92 321.1Z" fill="#A9A8A9"/>
<path d="M205.42 315.7L181.82 304.7C180.32 304 179.62 302.2 180.32 300.7C181.02 299.2 182.82 298.5 184.32 299.2L207.92 310.2C209.42 310.9 210.12 312.7 209.42 314.2C208.72 315.8 206.92 316.4 205.42 315.7Z" fill="#A9A8A9"/>
<path d="M473.52 311.4L483.82 331.6C486.92 337.7 482.32 344.9 475.42 344.5L456.12 343.5L473.52 311.4Z" fill="#D42323"/>
<path d="M528.251 406.009L509.372 416.909L516.772 429.726L535.651 418.826L528.251 406.009Z" fill="#191919"/>
<path d="M528.251 406.009L509.372 416.909L516.772 429.726L535.651 418.826L528.251 406.009Z" stroke="#151515" stroke-width="4" stroke-miterlimit="10" stroke-linecap="round" stroke-linejoin="round"/>
<path d="M473.52 311.4L483.82 331.6C486.92 337.7 482.32 344.9 475.42 344.5L456.12 343.5L473.52 311.4Z" stroke="#151515" stroke-width="4" stroke-miterlimit="10" stroke-linecap="round" stroke-linejoin="round"/>
<path d="M452.32 300.5L570.62 148.4L589.32 151.6L471.12 317.3L452.32 300.5Z" fill="#242424"/>
<path d="M580.82 150.1L465.22 312L471.12 317.3L589.32 151.6L580.82 150.1Z" fill="#1A1A1A"/>
<path d="M562.32 159L576.72 166.5L581.22 155.9L574.52 150.1L562.32 159Z" fill="#1A1A1A"/>
<path d="M452.32 300.5L570.62 148.4L589.32 151.6L471.12 317.3L452.32 300.5Z" stroke="#151515" stroke-width="4" stroke-miterlimit="10" stroke-linecap="round" stroke-linejoin="round"/>
<path d="M644.42 124.2L643.42 124.4C621.82 128.3 599.92 129.1 578.12 126.9L543.02 124.9C536.42 124.5 530.02 127.5 525.72 133L517.52 143.7C516.42 145.2 517.12 147.4 518.82 147.8C518.82 147.8 560.32 148.3 597.22 165.3C600.72 166.9 604.72 167 608.22 165.1C620.92 158.3 650.22 142.3 650.22 142.3C653.82 140.3 655.82 135.9 654.82 131.4C653.72 126.4 649.12 123.3 644.42 124.2Z" fill="#686868"/>
<path d="M518.82 147.7C518.82 147.7 519.42 147.7 520.52 147.7L525.82 140.9C530.12 135.4 536.42 132.4 543.12 132.8L583.02 139.6C604.82 141.9 618.72 140.1 643.42 132.3L644.42 132.1C648.52 131.4 652.62 133.6 654.32 137.6C655.12 135.7 655.32 133.5 654.82 131.3C653.72 126.3 649.12 123.3 644.42 124.1L643.42 124.3C621.82 128.2 599.92 129 578.12 126.8L543.02 124.8C536.42 124.4 530.02 127.4 525.72 132.9L517.52 143.6C516.42 145.1 517.12 147.3 518.82 147.7Z" fill="#242424"/>
<path d="M644.42 124.2L643.42 124.4C621.82 128.3 599.92 129.1 578.12 126.9L543.02 124.9C536.42 124.5 530.02 127.5 525.72 133L517.52 143.7C516.42 145.2 517.12 147.4 518.82 147.8C518.82 147.8 560.32 148.3 597.22 165.3C600.72 166.9 604.72 167 608.22 165.1C620.92 158.3 650.22 142.3 650.22 142.3C653.82 140.3 655.82 135.9 654.82 131.4C653.72 126.4 649.12 123.3 644.42 124.2Z" stroke="#151515" stroke-width="4" stroke-miterlimit="10" stroke-linecap="round" stroke-linejoin="round"/>
<path d="M200.32 344.9C204.92 334.8 199.92 326.9 189.92 322.1L189.82 322C189.82 322 187.32 320.9 187.02 320.8C176.62 315.7 166.92 319.1 162.12 329.8C140.62 377.6 123.12 427.1 109.92 477.8C117.02 479.6 124.12 481.5 131.22 483.3C141.62 443.3 154.72 404.2 170.42 366C172.52 360.9 177.32 357.5 182.62 357.4C190.52 357.4 196.92 352.4 200.32 344.9Z" fill="#242424"/>
<path opacity="0.46" d="M129.72 433.2L166.22 337.5" stroke="white" stroke-width="2" stroke-miterlimit="10" stroke-linecap="round" stroke-linejoin="round"/>
<path opacity="0.92" d="M198.92 328.9C198.72 330.7 198.22 332.6 197.32 334.6C193.92 342.1 187.52 347 179.72 347.1C174.42 347.2 169.52 350.6 167.52 355.7C151.82 393.8 138.72 433 128.32 473C123.02 471.6 117.72 470.2 112.42 468.9C111.62 471.9 110.82 474.8 110.02 477.8C117.12 479.6 124.22 481.5 131.32 483.3C141.72 443.3 154.82 404.2 170.52 366C172.62 360.9 177.42 357.5 182.72 357.4C190.52 357.3 196.92 352.4 200.32 344.9C203.12 338.7 202.32 333.3 198.92 328.9Z" fill="#191919"/>
<path d="M200.32 344.9C204.92 334.8 199.92 326.9 189.92 322.1L189.82 322C189.82 322 187.32 320.9 187.02 320.8C176.62 315.7 166.92 319.1 162.12 329.8C140.62 377.6 123.12 427.1 109.92 477.8C117.02 479.6 124.12 481.5 131.22 483.3C141.62 443.3 154.72 404.2 170.42 366C172.52 360.9 177.32 357.5 182.62 357.4C190.52 357.4 196.92 352.4 200.32 344.9Z" stroke="#151515" stroke-width="4" stroke-miterlimit="10" stroke-linecap="round" stroke-linejoin="round"/>
<path d="M656.02 504.1L420.02 503.6C397.02 503.1 379.32 483.1 381.62 460.2C383.92 437.3 405.32 421.3 427.92 425.4L660.52 459.2L656.02 504.1Z" fill="#BA2525"/>
<path d="M434.32 439.6L655.22 464.5" stroke="#151515" stroke-width="3" stroke-miterlimit="10" stroke-linecap="round" stroke-linejoin="round"/>
<path d="M447.02 478.9C424.02 478.4 406.32 458.4 408.62 435.5C408.92 432.2 409.72 429.1 410.72 426.2C395.42 430.3 383.32 443.4 381.62 460.3C379.32 483.2 397.02 503.2 420.02 503.7L656.02 504.2L658.52 479.4L447.02 478.9Z" fill="#FE3131"/>
<path d="M409.62 430.1C409.92 428.8 410.32 427.5 410.82 426.2C410.42 426.3 409.92 426.4 409.52 426.6C409.52 427.7 409.52 428.9 409.62 430.1Z" fill="#D42323"/>
<path d="M657.12 491.4L421.12 490.9C400.62 490.5 384.32 474.5 382.72 454.8C382.32 456.6 381.92 458.4 381.72 460.3C379.42 483.2 397.12 503.2 420.12 503.7L656.12 504.2L658.62 479.4H658.32L657.12 491.4Z" fill="#D42323"/>
<path d="M447.02 478.9C424.02 478.4 406.32 458.4 408.62 435.5C408.92 432.2 409.72 429.1 410.72 426.2C395.42 430.3 383.32 443.4 381.62 460.3C379.32 483.2 397.02 503.2 420.02 503.7L656.02 504.2L658.52 479.4L447.02 478.9Z" stroke="#151515" stroke-width="4" stroke-miterlimit="10" stroke-linecap="round" stroke-linejoin="round"/>
<path d="M656.02 504.1L420.02 503.6C397.02 503.1 379.32 483.1 381.62 460.2C383.92 437.3 405.32 421.3 427.92 425.4L660.52 459.2L656.02 504.1Z" stroke="#151515" stroke-width="4" stroke-miterlimit="10" stroke-linecap="round" stroke-linejoin="round"/>
<path d="M200.32 326.6L176.72 315.6C175.22 314.9 174.52 313.1 175.22 311.6C175.92 310.1 177.72 309.4 179.22 310.1L202.82 321.1C204.32 321.8 205.02 323.6 204.32 325.1C203.62 326.6 201.82 327.3 200.32 326.6Z" stroke="#151515" stroke-width="4" stroke-miterlimit="10" stroke-linecap="round" stroke-linejoin="round"/>
<path d="M202.92 321.1L179.32 310.1C177.82 309.4 177.12 307.6 177.82 306.1C178.52 304.6 180.32 303.9 181.82 304.6L205.42 315.6C206.92 316.3 207.62 318.1 206.92 319.6C206.22 321.2 204.42 321.8 202.92 321.1Z" stroke="#151515" stroke-width="4" stroke-miterlimit="10" stroke-linecap="round" stroke-linejoin="round"/>
<path d="M205.42 315.7L181.82 304.7C180.32 304 179.62 302.2 180.32 300.7C181.02 299.2 182.82 298.5 184.32 299.2L207.92 310.2C209.42 310.9 210.12 312.7 209.42 314.2C208.72 315.8 206.92 316.4 205.42 315.7Z" stroke="#151515" stroke-width="4" stroke-miterlimit="10" stroke-linecap="round" stroke-linejoin="round"/>
<path d="M208.62 310.4L184.02 298.9C182.32 298.1 181.52 296.1 182.32 294.3L225.92 200.8C226.72 199.1 228.72 198.3 230.52 199.1L255.12 210.6C256.82 211.4 257.62 213.4 256.82 215.2L213.22 308.8C212.42 310.5 210.32 311.2 208.62 310.4Z" fill="#FE3131"/>
<path d="M255.12 210.7L230.52 199.2C230.32 199.1 230.12 199 229.82 199L244.32 205.8C246.02 206.6 246.82 208.6 246.02 210.4L202.42 303.9C201.72 305.4 200.12 306.2 198.52 305.8L208.62 310.5C210.32 311.3 212.42 310.6 213.22 308.8L256.82 215.3C257.62 213.6 256.82 211.5 255.12 210.7Z" fill="#D42323"/>
<path d="M208.62 310.4L184.02 298.9C182.32 298.1 181.52 296.1 182.32 294.3L225.92 200.8C226.72 199.1 228.72 198.3 230.52 199.1L255.12 210.6C256.82 211.4 257.62 213.4 256.82 215.2L213.22 308.8C212.42 310.5 210.32 311.2 208.62 310.4Z" stroke="#151515" stroke-width="4" stroke-miterlimit="10" stroke-linecap="round" stroke-linejoin="round"/>
<path d="M442.02 450.2C440.32 441.2 439.42 431.9 439.42 422.4C439.42 366.7 480.82 307.8 480.82 307.8L457.12 288.4L436.32 309.4C422.12 325.1 395.42 328 376.92 317.8L236.82 254.9L217.72 293.8L330.32 359.4C366.22 383.6 388.42 423.6 389.72 466.9L389.92 470.2C390.92 485.5 404.32 496.9 419.52 495.6C435.22 494.2 446.42 479.9 444.12 464.3L442.02 450.2Z" fill="#FE3131"/>
<path d="M403.82 469.6L396.72 465.9C395.22 417.2 400.42 377.7 339.92 341.7L223.12 282.9L217.82 293.8L330.42 359.4C366.32 383.6 386.22 416.7 389.42 459.7L391.82 461.4C392.52 472.4 399.62 481.4 409.32 485.1C406.12 480.7 404.12 475.4 403.82 469.6Z" fill="#D42323"/>
<path d="M442.02 450.2C440.32 441.2 439.42 431.9 439.42 422.4C439.42 366.7 480.82 307.8 480.82 307.8L475.52 303.5C471.52 309.4 423.52 362.8 423.52 415.4C423.52 424.9 415.62 441.2 417.32 450.2L433.62 454.8C436.02 470.4 424.72 484.7 409.02 486.1C403.72 486.6 398.72 485.5 394.32 483.3C399.62 491.4 409.22 496.5 419.52 495.5C435.22 494.1 446.42 479.8 444.12 464.2L442.02 450.2Z" fill="#D42323"/>
<path d="M319.72 350L218.92 291.3L217.72 293.9L330.32 359.5C333.52 361.6 336.52 363.9 339.42 366.2C333.42 360.2 326.92 354.8 319.72 350Z" fill="#D42323"/>
<g opacity="0.83">
<g opacity="0.83">
<g opacity="0.83">
<path opacity="0.83" d="M386.12 439.6C388.22 448.5 389.52 457.6 389.82 466.9L390.02 470.2C390.42 476.4 392.92 482 396.72 486.4C395.72 470.1 392.02 454.4 386.12 439.6Z" fill="#FC8686"/>
</g>
<g opacity="0.83">
<path opacity="0.83" d="M382.82 327.2C403.12 338.4 428.52 331.5 444.12 314.3L462.12 292.4L457.12 288.3L436.32 309.3C422.12 325 395.42 327.9 376.92 317.7L236.82 254.8L234.02 260.4L382.82 327.2Z" fill="#FC8686"/>
</g>
</g>
</g>
<path d="M230.02 296.5L247.72 259.7L232.92 253.2L214.52 290.5L230.02 296.5Z" fill="#D42323"/>
<path d="M442.02 450.2C440.32 441.2 439.42 431.9 439.42 422.4C439.42 366.7 480.82 307.8 480.82 307.8L457.12 288.4L436.32 309.4C422.12 325.1 395.42 328 376.92 317.8L236.82 254.9L217.72 293.8L330.32 359.4C366.22 383.6 388.42 423.6 389.72 466.9L389.92 470.2C390.92 485.5 404.32 496.9 419.52 495.6C435.22 494.2 446.42 479.9 444.12 464.3L442.02 450.2Z" stroke="#151515" stroke-width="4" stroke-miterlimit="10" stroke-linecap="round" stroke-linejoin="round"/>
<path d="M264.72 163.7L290.02 20.2L267.12 16.2L239.72 171.8L239.02 175.7C238.22 180.3 240.22 184.8 243.82 186.4L260.32 193.7C264.12 195.4 268.12 190.9 267.02 186.3C265.22 179 263.62 170.1 264.72 163.7Z" fill="#242424"/>
<path d="M264.72 163.7L290.02 20.2L267.12 16.2L266.32 20.9L280.62 23.4L255.22 166.8C254.12 173.2 255.62 182.1 257.42 189.3C257.72 190.3 257.62 191.4 257.42 192.3L260.22 193.5C264.02 195.2 268.02 190.7 266.92 186.1C265.22 179 263.62 170.1 264.72 163.7Z" fill="#1A1A1A"/>
<path d="M264.72 163.7L290.02 20.2L267.12 16.2L239.72 171.8L239.02 175.7C238.22 180.3 240.22 184.8 243.82 186.4L260.32 193.7C264.12 195.4 268.12 190.9 267.02 186.3C265.22 179 263.62 170.1 264.72 163.7Z" stroke="#151515" stroke-width="4" stroke-miterlimit="10" stroke-linecap="round" stroke-linejoin="round"/>
<path d="M255.12 211L232.82 202C228.22 200.1 226.02 194.9 227.82 190.3C229.72 185.7 234.92 183.5 239.52 185.3L261.82 194.3C266.42 196.2 268.62 201.4 266.82 206C265.02 210.6 259.72 212.8 255.12 211Z" fill="#242424"/>
<path d="M261.92 194.3L254.12 191.1C256.52 193.6 257.42 197.4 256.02 200.8C254.12 205.4 248.92 207.6 244.32 205.8L229.92 200C230.72 200.8 231.82 201.5 232.92 202L255.22 211C259.82 212.9 265.12 210.6 266.92 206C268.72 201.4 266.52 196.1 261.92 194.3Z" fill="#1A1A1A"/>
<path d="M255.12 211L232.82 202C228.22 200.1 226.02 194.9 227.82 190.3C229.72 185.7 234.92 183.5 239.52 185.3L261.82 194.3C266.42 196.2 268.62 201.4 266.82 206C265.02 210.6 259.72 212.8 255.12 211Z" stroke="#151515" stroke-width="4" stroke-miterlimit="10" stroke-linecap="round" stroke-linejoin="round"/>
<path d="M286.218 40.2115C292.46 36.8932 293.948 27.4825 289.54 19.1922C285.133 10.9018 276.5 6.8712 270.258 10.1895C264.016 13.5078 262.529 22.9185 266.936 31.2088C271.343 39.4992 279.976 43.5298 286.218 40.2115Z" fill="#151515"/>
<path d="M286.227 39.6094C292.469 36.2911 293.956 26.8804 289.549 18.5901C285.142 10.2997 276.509 6.26909 270.267 9.58739C264.025 12.9057 262.537 22.3164 266.944 30.6067C271.351 38.897 279.984 42.9277 286.227 39.6094Z" stroke="#151515" stroke-width="4" stroke-miterlimit="10" stroke-linecap="round" stroke-linejoin="round"/>
<path d="M508.42 365.3C506.42 362.1 504.12 359.1 501.42 356.5C496.22 351.4 491.12 346.3 486.02 341.2H486.12L482.22 334.5C480.32 331.2 476.12 330.1 472.92 332C469.62 333.9 468.52 338.1 470.42 341.3L474.32 348H474.42C476.32 355 478.12 362 480.02 369C480.92 372.6 482.32 376.2 484.22 379.5C492.82 395.2 491.52 392.1 502.82 409L524.92 396.3C515.62 378 517.72 380.7 508.42 365.3Z" fill="#FE3131"/>
<path opacity="0.95" d="M476.32 338.3L480.22 345H480.12C485.22 350.1 490.32 355.2 495.52 360.3C498.22 362.9 500.52 365.9 502.52 369.1C511.72 384.3 509.82 381.8 518.62 399.6L524.62 396.1C515.62 377.9 517.62 380.6 508.32 365.3C506.32 362.1 504.02 359.1 501.32 356.5C496.12 351.4 491.02 346.3 485.92 341.2H486.02L482.12 334.5C480.22 331.2 476.02 330.1 472.82 332C471.62 332.7 470.62 333.7 470.12 334.9C472.62 334.8 475.02 336 476.32 338.3Z" fill="#D42323"/>
<path d="M508.42 365.3C506.42 362.1 504.12 359.1 501.42 356.5C496.22 351.4 491.12 346.3 486.02 341.2H486.12L482.22 334.5C480.32 331.2 476.12 330.1 472.92 332C469.62 333.9 468.52 338.1 470.42 341.3L474.32 348H474.42C476.32 355 478.12 362 480.02 369C480.92 372.6 482.32 376.2 484.22 379.5C492.82 395.2 491.52 392.1 502.82 409L524.92 396.3C515.62 378 517.72 380.7 508.42 365.3Z" stroke="#151515" stroke-width="4" stroke-miterlimit="10" stroke-linecap="round" stroke-linejoin="round"/>
<path d="M530.22 409.6C524.62 414.2 518.32 417.9 511.52 420.4C508.32 421.4 504.22 419.7 502.62 417C501.02 414.3 501.62 409.9 504.12 407.6C509.72 403 516.02 399.3 522.82 396.8C526.02 395.8 530.12 397.5 531.72 400.2C533.22 402.9 532.72 407.3 530.22 409.6Z" fill="#CC1F1F"/>
<path d="M530.22 409.6C524.62 414.2 518.32 417.9 511.52 420.4C508.32 421.4 504.22 419.7 502.62 417C501.02 414.3 501.62 409.9 504.12 407.6C509.72 403 516.02 399.3 522.82 396.8C526.02 395.8 530.12 397.5 531.72 400.2C533.22 402.9 532.72 407.3 530.22 409.6Z" stroke="#151515" stroke-width="4" stroke-miterlimit="10" stroke-linecap="round" stroke-linejoin="round"/>
<path d="M522.42 438.2C522.12 439.4 521.92 440.6 521.92 441.9C521.92 449.7 528.22 456 536.02 456C543.72 456 549.92 449.9 550.12 442.2L522.42 438.2Z" fill="#191919"/>
<path d="M522.42 438.2C522.12 439.4 521.92 440.6 521.92 441.9C521.92 449.7 528.22 456 536.02 456C543.72 456 549.92 449.9 550.12 442.2L522.42 438.2Z" stroke="#151515" stroke-width="4" stroke-miterlimit="10" stroke-linecap="round" stroke-linejoin="round"/>
<path d="M417.32 496.1C433.281 496.1 446.22 483.161 446.22 467.2C446.22 451.239 433.281 438.3 417.32 438.3C401.359 438.3 388.42 451.239 388.42 467.2C388.42 483.161 401.359 496.1 417.32 496.1Z" fill="#242424"/>
<path d="M417.32 496.1C433.281 496.1 446.22 483.161 446.22 467.2C446.22 451.239 433.281 438.3 417.32 438.3C401.359 438.3 388.42 451.239 388.42 467.2C388.42 483.161 401.359 496.1 417.32 496.1Z" stroke="#151515" stroke-width="4" stroke-miterlimit="10" stroke-linecap="round" stroke-linejoin="round"/>
<path d="M417.32 496.1C433.281 496.1 446.22 483.161 446.22 467.2C446.22 451.239 433.281 438.3 417.32 438.3C401.359 438.3 388.42 451.239 388.42 467.2C388.42 483.161 401.359 496.1 417.32 496.1Z" stroke="#151515" stroke-width="4" stroke-miterlimit="10" stroke-linecap="round" stroke-linejoin="round"/>
<path opacity="0.92" d="M417.32 484.2C426.709 484.2 434.32 476.589 434.32 467.2C434.32 457.811 426.709 450.2 417.32 450.2C407.931 450.2 400.32 457.811 400.32 467.2C400.32 476.589 407.931 484.2 417.32 484.2Z" fill="#191919"/>
<path d="M539.72 447C536.72 448.8 532.82 447.7 531.02 444.7L521.02 427.3L532.02 420.9L542.02 438.3C543.72 441.4 542.72 445.3 539.72 447Z" fill="#191919"/>
<path d="M539.72 447C536.72 448.8 532.82 447.7 531.02 444.7L521.02 427.3L532.02 420.9L542.02 438.3C543.72 441.4 542.72 445.3 539.72 447Z" stroke="#151515" stroke-width="4" stroke-miterlimit="10" stroke-linecap="round" stroke-linejoin="round"/>
<path d="M537.12 446.6C539.826 446.6 542.02 444.406 542.02 441.7C542.02 438.994 539.826 436.8 537.12 436.8C534.414 436.8 532.22 438.994 532.22 441.7C532.22 444.406 534.414 446.6 537.12 446.6Z" stroke="#151515" stroke-width="4" stroke-miterlimit="10" stroke-linecap="round" stroke-linejoin="round"/>
<path d="M476.12 341.7C478.44 341.7 480.32 339.82 480.32 337.5C480.32 335.18 478.44 333.3 476.12 333.3C473.8 333.3 471.92 335.18 471.92 337.5C471.92 339.82 473.8 341.7 476.12 341.7Z" stroke="#151515" stroke-width="4" stroke-miterlimit="10" stroke-linecap="round" stroke-linejoin="round"/>
<path d="M425.72 452.5C425.72 452.5 419.72 439.2 424.32 409.2C429.02 379.2 434.22 365.9 434.22 365.9C434.22 365.9 427.12 367.8 417.22 392.1C407.32 416.6 406.42 452.5 406.42 452.5H425.72V452.5Z" fill="#191919"/>
<path d="M425.72 452.5C425.72 452.5 419.72 439.2 424.32 409.2C429.02 379.2 434.22 365.9 434.22 365.9C434.22 365.9 427.12 367.8 417.22 392.1C408.22 414.4 406.62 448.3 406.42 454.1C402.62 457.2 400.22 461.9 400.22 467.2C400.22 476.6 407.82 484.2 417.22 484.2C426.62 484.2 434.22 476.6 434.22 467.2C434.32 460.9 430.82 455.4 425.72 452.5Z" stroke="#151515" stroke-width="4" stroke-miterlimit="10" stroke-linecap="round" stroke-linejoin="round"/>
<path d="M419.32 475.7L332.92 473.3C330.52 473.2 328.52 470.8 328.52 467.8C328.52 464.8 330.52 462.3 332.92 462.3L419.32 459.9C421.82 459.8 423.92 462.3 423.92 465.5V470.4C424.02 473.3 421.92 475.8 419.32 475.7Z" fill="#242424"/>
<path d="M419.32 475.7L332.92 473.3C330.52 473.2 328.52 470.8 328.52 467.8C328.52 464.8 330.52 462.3 332.92 462.3L419.32 459.9C421.82 459.8 423.92 462.3 423.92 465.5V470.4C424.02 473.3 421.92 475.8 419.32 475.7Z" stroke="#151515" stroke-width="4" stroke-miterlimit="10" stroke-linecap="round" stroke-linejoin="round"/>
<path d="M413.12 467.7H424.02" stroke="#151515" stroke-width="4" stroke-miterlimit="10" stroke-linecap="round" stroke-linejoin="round"/>
<path d="M341.12 489H340.72C337.02 489 333.92 486 333.92 482.2V453.2C333.92 449.5 336.92 446.4 340.72 446.4H341.12C344.82 446.4 347.92 449.4 347.92 453.2V482.2C347.92 486 344.82 489 341.12 489Z" fill="#161616"/>
<path d="M341.12 489H340.72C337.02 489 333.92 486 333.92 482.2V453.2C333.92 449.5 336.92 446.4 340.72 446.4H341.12C344.82 446.4 347.92 449.4 347.92 453.2V482.2C347.92 486 344.82 489 341.12 489Z" stroke="#151515" stroke-width="4" stroke-miterlimit="10" stroke-linecap="round" stroke-linejoin="round"/>
<path d="M512.52 223L529.42 235.4" stroke="#151515" stroke-width="4" stroke-miterlimit="10" stroke-linecap="round" stroke-linejoin="round"/>
<path d="M529.42 236.9L535.22 241" stroke="#151515" stroke-width="6" stroke-miterlimit="10" stroke-linecap="round" stroke-linejoin="round"/>
<path opacity="0.46" d="M525.82 217.6L564.72 166.5" stroke="white" stroke-width="3" stroke-miterlimit="10" stroke-linecap="round" stroke-linejoin="round"/>
<path opacity="0.46" d="M472.02 288.2L513.92 232.8" stroke="white" stroke-width="3" stroke-miterlimit="10" stroke-linecap="round" stroke-linejoin="round"/>
<path d="M245.521 37.2425L225.653 46.211L227.668 50.6769L247.537 41.7084L245.521 37.2425Z" stroke="#151515" stroke-width="6" stroke-miterlimit="10" stroke-linecap="round" stroke-linejoin="round"/>
<path d="M275.22 33.2L249.62 44.7L244.62 33.6L270.12 22.1C272.62 21 275.62 22.1 276.72 24.6L277.62 26.5C278.82 29.1 277.72 32.1 275.22 33.2Z" fill="#151515"/>
<path d="M275.22 33.2L249.62 44.7L244.62 33.6L270.12 22.1C272.62 21 275.62 22.1 276.72 24.6L277.62 26.5C278.82 29.1 277.72 32.1 275.22 33.2Z" stroke="#151515" stroke-width="4" stroke-miterlimit="10" stroke-linecap="round" stroke-linejoin="round"/>
<path d="M224.72 55.6C227.868 55.6 230.42 53.0033 230.42 49.8C230.42 46.5968 227.868 44 224.72 44C221.572 44 219.02 46.5968 219.02 49.8C219.02 53.0033 221.572 55.6 224.72 55.6Z" fill="#5E5E5E"/>
<path d="M224.72 57.4C228.862 57.4 232.22 53.9974 232.22 49.8C232.22 45.6026 228.862 42.2 224.72 42.2C220.578 42.2 217.22 45.6026 217.22 49.8C217.22 53.9974 220.578 57.4 224.72 57.4Z" stroke="#151515" stroke-width="4" stroke-miterlimit="10" stroke-linecap="round" stroke-linejoin="round"/>
<path d="M224.72 57.4C228.862 57.4 232.22 53.9974 232.22 49.8C232.22 45.6026 228.862 42.2 224.72 42.2C220.578 42.2 217.22 45.6026 217.22 49.8C217.22 53.9974 220.578 57.4 224.72 57.4Z" fill="#151515"/>
<path d="M309.662 7.64699L286.056 18.3022L288.401 23.4972L312.007 12.842L309.662 7.64699Z" stroke="#151515" stroke-width="7" stroke-miterlimit="10" stroke-linecap="round" stroke-linejoin="round"/>
<path d="M283.72 24.1C286.316 24.1 288.42 21.951 288.42 19.3C288.42 16.649 286.316 14.5 283.72 14.5C281.124 14.5 279.02 16.649 279.02 19.3C279.02 21.951 281.124 24.1 283.72 24.1Z" fill="#5E5E5E"/>
<path d="M283.72 25.6C287.144 25.6 289.92 22.7794 289.92 19.3C289.92 15.8206 287.144 13 283.72 13C280.296 13 277.52 15.8206 277.52 19.3C277.52 22.7794 280.296 25.6 283.72 25.6Z" stroke="#151515" stroke-width="4" stroke-miterlimit="10" stroke-linecap="round" stroke-linejoin="round"/>
<path d="M283.72 25.6C287.144 25.6 289.92 22.7794 289.92 19.3C289.92 15.8206 287.144 13 283.72 13C280.296 13 277.52 15.8206 277.52 19.3C277.52 22.7794 280.296 25.6 283.72 25.6Z" fill="#151515"/>
<path d="M310.32 18C315.235 18 319.22 13.9706 319.22 9C319.22 4.02944 315.235 0 310.32 0C305.405 0 301.42 4.02944 301.42 9C301.42 13.9706 305.405 18 310.32 18Z" fill="#151515"/>
<path opacity="0.46" d="M247.62 35.7L262.22 29" stroke="white" stroke-width="2" stroke-miterlimit="10" stroke-linecap="round" stroke-linejoin="round"/>
<path opacity="0.46" d="M296.02 15.6L299.12 14.2" stroke="white" stroke-width="2" stroke-miterlimit="10" stroke-linecap="round" stroke-linejoin="round"/>
<path opacity="0.46" d="M247.92 159.6L246.62 167.2C246.62 167.2 245.52 174.4 246.22 178.2C246.92 182 250.02 183.1 250.02 183.1" stroke="white" stroke-width="2" stroke-miterlimit="10" stroke-linecap="round" stroke-linejoin="round"/>
<path opacity="0.46" d="M267.52 44L249.02 152" stroke="white" stroke-width="2" stroke-miterlimit="10" stroke-linecap="round" stroke-linejoin="round"/>
<path opacity="0.46" d="M169.92 331.3C169.92 331.3 172.92 325.6 177.62 325.6" stroke="white" stroke-width="2" stroke-miterlimit="10" stroke-linecap="round" stroke-linejoin="round"/>
<path opacity="0.46" d="M237.42 189.8C237.42 189.8 234.32 189.8 233.32 192.7C232.92 194.1 233.22 195.8 234.62 197.1" stroke="white" stroke-width="2" stroke-miterlimit="10" stroke-linecap="round" stroke-linejoin="round"/>
<path opacity="0.5" d="M483.42 356.2C483.42 356.2 485.42 365.7 486.92 370C488.42 374.2 501.62 395.2 501.62 395.2" stroke="white" stroke-width="3" stroke-miterlimit="10" stroke-linecap="round" stroke-linejoin="round"/>
<path opacity="0.5" d="M507.72 414.4C507.72 414.4 507.12 411.9 510.52 409.2C512.42 407.7 521.92 402.1 521.92 402.1" stroke="white" stroke-width="3" stroke-miterlimit="10" stroke-linecap="round" stroke-linejoin="round"/>
<path opacity="0.46" d="M192.42 293.8L231.02 211.6" stroke="white" stroke-width="2" stroke-miterlimit="10" stroke-linecap="round" stroke-linejoin="round"/>
<path opacity="0.46" d="M272.62 15.6C272.62 15.6 274.62 11.7 280.62 13.1" stroke="white" stroke-width="2" stroke-miterlimit="10" stroke-linecap="round" stroke-linejoin="round"/>
<path d="M121.02 503.7C138.693 503.7 153.02 489.373 153.02 471.7C153.02 454.027 138.693 439.7 121.02 439.7C103.347 439.7 89.02 454.027 89.02 471.7C89.02 489.373 103.347 503.7 121.02 503.7Z" fill="#242424"/>
<path d="M121.02 503.7C138.693 503.7 153.02 489.373 153.02 471.7C153.02 454.027 138.693 439.7 121.02 439.7C103.347 439.7 89.02 454.027 89.02 471.7C89.02 489.373 103.347 503.7 121.02 503.7Z" stroke="#151515" stroke-width="4" stroke-miterlimit="10" stroke-linecap="round" stroke-linejoin="round"/>
<path d="M208.82 520L151.92 483C142.82 477.1 142.12 464 150.52 457.1L203.22 414.4L194.02 403L141.32 445.7C132.92 452.5 120.22 449.1 116.32 439L92.02 375.7L78.32 381L102.62 444.4C106.52 454.5 99.42 465.5 88.52 466.1L20.72 469.7L21.52 484.4L89.32 480.8C100.22 480.2 108.42 490.4 105.62 500.9L88.02 566.5L102.22 570.3L119.82 504.7C122.62 494.2 134.92 489.5 144.02 495.4L200.92 532.4L208.82 520Z" fill="#B7B7B7"/>
<path d="M92.92 563.6L109.42 501.9C111.02 495.8 109.82 489.5 106.02 484.6C102.22 479.6 96.42 476.8 90.22 476.8C89.82 476.8 89.52 476.8 89.12 476.8L25.32 480.1L25.02 473.4L88.82 470.1C95.32 469.8 101.02 466.5 104.52 461C108.02 455.6 108.72 449 106.42 442.9L83.52 383.3L89.72 380.9L112.62 440.5C115.62 448.3 122.92 453.3 131.32 453.3C135.92 453.3 140.22 451.8 143.82 448.8L193.42 408.6L197.62 413.8L148.02 454C143.02 458.1 140.32 464.1 140.62 470.6C140.92 477.1 144.22 482.8 149.72 486.3L203.32 521.1L199.72 526.7L146.12 491.9C142.82 489.8 139.12 488.7 135.22 488.7C126.12 488.7 118.22 494.8 115.82 503.5L99.32 565.2L92.92 563.6Z" fill="#A9A8A9"/>
<path d="M208.82 520L151.92 483C142.82 477.1 142.12 464 150.52 457.1L203.22 414.4L194.02 403L141.32 445.7C132.92 452.5 120.22 449.1 116.32 439L92.02 375.7L78.32 381L102.62 444.4C106.52 454.5 99.42 465.5 88.52 466.1L20.72 469.7L21.52 484.4L89.32 480.8C100.22 480.2 108.42 490.4 105.62 500.9L88.02 566.5L102.22 570.3L119.82 504.7C122.62 494.2 134.92 489.5 144.02 495.4L200.92 532.4L208.82 520Z" stroke="#151515" stroke-width="4" stroke-miterlimit="10" stroke-linecap="round" stroke-linejoin="round"/>
<path d="M151.52 357.7C88.72 340.9 23.82 378.3 7.01997 441.1C-9.78003 503.9 27.62 568.8 90.42 585.6C153.22 602.4 218.12 565 234.92 502.2C251.82 439.4 214.42 374.6 151.52 357.7ZM95.12 568.3C41.82 554 10.12 499.2 24.42 445.8C38.72 392.5 93.52 360.8 146.92 375.1C200.32 389.4 231.92 444.2 217.62 497.6C203.32 550.9 148.42 582.6 95.12 568.3Z" fill="#242424"/>
<path opacity="0.92" d="M151.52 357.7C88.72 340.9 23.82 378.3 7.01997 441.1C-9.78003 503.9 27.62 568.8 90.42 585.6C153.22 602.4 218.12 565 234.92 502.2C251.82 439.4 214.42 374.6 151.52 357.7ZM227.22 500.2C214.32 548.2 170.62 581.7 120.92 581.7C111.32 581.7 101.82 580.4 92.52 577.9C64.22 570.3 40.52 552.1 25.82 526.6C11.12 501.1 7.21997 471.5 14.82 443.2C27.72 395.2 71.42 361.7 121.12 361.7C130.72 361.7 140.22 363 149.52 365.5C177.82 373.1 201.52 391.3 216.22 416.8C230.92 442.3 234.82 471.8 227.22 500.2Z" fill="#191919"/>
<path d="M121.02 571.7C176.248 571.7 221.02 526.928 221.02 471.7C221.02 416.472 176.248 371.7 121.02 371.7C65.7915 371.7 21.02 416.472 21.02 471.7C21.02 526.928 65.7915 571.7 121.02 571.7Z" stroke="#151515" stroke-width="4" stroke-miterlimit="10" stroke-linecap="round" stroke-linejoin="round"/>
<path d="M151.52 357.7C88.72 340.9 23.82 378.3 7.01997 441.1C-9.78003 503.9 27.62 568.8 90.42 585.6C153.22 602.4 218.12 565 234.92 502.2C251.82 439.4 214.42 374.6 151.52 357.7ZM95.12 568.3C41.82 554 10.12 499.2 24.42 445.8C38.72 392.5 93.52 360.8 146.92 375.1C200.32 389.4 231.92 444.2 217.62 497.6C203.32 550.9 148.42 582.6 95.12 568.3Z" stroke="#151515" stroke-width="4" stroke-miterlimit="10" stroke-linecap="round" stroke-linejoin="round"/>
<path d="M121.02 589.7C186.19 589.7 239.02 536.87 239.02 471.7C239.02 406.53 186.19 353.7 121.02 353.7C55.8504 353.7 3.01997 406.53 3.01997 471.7C3.01997 536.87 55.8504 589.7 121.02 589.7Z" stroke="#151515" stroke-width="4" stroke-miterlimit="10" stroke-linecap="round" stroke-linejoin="round"/>
<path d="M121.02 589.7C186.19 589.7 239.02 536.87 239.02 471.7C239.02 406.53 186.19 353.7 121.02 353.7C55.8504 353.7 3.01997 406.53 3.01997 471.7C3.01997 536.87 55.8504 589.7 121.02 589.7Z" stroke="#151515" stroke-width="6" stroke-miterlimit="10" stroke-linecap="round" stroke-linejoin="round"/>
<path d="M146.82 375.1C93.52 360.8 38.62 392.5 24.32 445.8C10.02 499.1 41.72 554 95.02 568.3C148.32 582.6 203.22 550.9 217.52 497.6C231.92 444.2 200.22 389.4 146.82 375.1ZM210.82 495.8C197.52 545.3 146.42 574.8 96.92 561.6C47.42 548.4 17.92 497.2 31.12 447.7C44.32 398.2 95.52 368.7 145.02 381.9C194.62 395.2 224.12 446.2 210.82 495.8Z" fill="#A9A8A9"/>
<path d="M146.82 375.1C93.52 360.8 38.62 392.5 24.32 445.8C10.02 499.1 41.72 554 95.02 568.3C148.32 582.6 203.22 550.9 217.52 497.6C231.92 444.2 200.22 389.4 146.82 375.1ZM210.82 495.8C197.52 545.3 146.42 574.8 96.92 561.6C47.42 548.4 17.92 497.2 31.12 447.7C44.32 398.2 95.52 368.7 145.02 381.9C194.62 395.2 224.12 446.2 210.82 495.8Z" stroke="#151515" stroke-width="4" stroke-miterlimit="10" stroke-linecap="round" stroke-linejoin="round"/>
<path d="M121.02 489.6C130.906 489.6 138.92 481.586 138.92 471.7C138.92 461.814 130.906 453.8 121.02 453.8C111.134 453.8 103.12 461.814 103.12 471.7C103.12 481.586 111.134 489.6 121.02 489.6Z" fill="#242424"/>
<path d="M121.02 489.6C130.906 489.6 138.92 481.586 138.92 471.7C138.92 461.814 130.906 453.8 121.02 453.8C111.134 453.8 103.12 461.814 103.12 471.7C103.12 481.586 111.134 489.6 121.02 489.6Z" stroke="#151515" stroke-width="3" stroke-miterlimit="10" stroke-linecap="round" stroke-linejoin="round"/>
<path opacity="0.92" d="M132.92 474.9C132.22 470.7 133.72 466.6 136.62 463.8C134.42 459.5 130.52 456.1 125.52 454.7C124.22 454.3 122.92 454.2 121.62 454.1C121.62 454.2 121.52 454.3 121.52 454.4C119.22 460.6 112.62 463.8 106.42 461.9C105.42 463.4 104.62 465.1 104.12 467C102.92 471.5 103.62 476 105.62 479.8C105.72 479.8 105.82 479.7 105.92 479.7C112.42 478.6 118.52 482.7 120.02 489C126.42 489.4 132.52 486.2 135.92 480.8C134.42 479.3 133.32 477.3 132.92 474.9Z" fill="#191919"/>
<path d="M121.02 477.4C124.168 477.4 126.72 474.848 126.72 471.7C126.72 468.552 124.168 466 121.02 466C117.872 466 115.32 468.552 115.32 471.7C115.32 474.848 117.872 477.4 121.02 477.4Z" fill="#151515"/>
<path d="M121.02 477.4C124.168 477.4 126.72 474.848 126.72 471.7C126.72 468.552 124.168 466 121.02 466C117.872 466 115.32 468.552 115.32 471.7C115.32 474.848 117.872 477.4 121.02 477.4Z" stroke="#151515" stroke-width="4" stroke-miterlimit="10" stroke-linecap="round" stroke-linejoin="round"/>
<path d="M132.92 474.9C132.22 470.7 133.72 466.6 136.62 463.8C134.42 459.5 130.52 456.1 125.52 454.7C124.22 454.3 122.92 454.2 121.62 454.1C121.62 454.2 121.52 454.3 121.52 454.4C119.22 460.6 112.62 463.8 106.42 461.9C105.42 463.4 104.62 465.1 104.12 467C102.92 471.5 103.62 476 105.62 479.8C105.72 479.8 105.82 479.7 105.92 479.7C112.42 478.6 118.52 482.7 120.02 489C126.42 489.4 132.52 486.2 135.92 480.8C134.42 479.3 133.32 477.3 132.92 474.9Z" stroke="#151515" stroke-width="3" stroke-miterlimit="10" stroke-linecap="round" stroke-linejoin="round"/>
<path opacity="0.67" d="M72.32 373.1C75.22 371.7 78.22 370.3 81.32 369.2" stroke="white" stroke-width="2" stroke-miterlimit="10" stroke-linecap="round" stroke-linejoin="round"/>
<path opacity="0.67" d="M14.72 443.2C21.72 417.1 37.82 395.3 59.02 380.8" stroke="white" stroke-width="2" stroke-miterlimit="10" stroke-linecap="round" stroke-linejoin="round"/>
<path d="M669.72 511.7C687.393 511.7 701.72 497.373 701.72 479.7C701.72 462.027 687.393 447.7 669.72 447.7C652.047 447.7 637.72 462.027 637.72 479.7C637.72 497.373 652.047 511.7 669.72 511.7Z" fill="#242424"/>
<path d="M669.72 511.7C687.393 511.7 701.72 497.373 701.72 479.7C701.72 462.027 687.393 447.7 669.72 447.7C652.047 447.7 637.72 462.027 637.72 479.7C637.72 497.373 652.047 511.7 669.72 511.7Z" stroke="#151515" stroke-width="4" stroke-miterlimit="10" stroke-linecap="round" stroke-linejoin="round"/>
<path d="M769.52 489.8L702.72 478C692.02 476.1 686.22 464.3 691.42 454.7L723.32 394.8L710.32 387.9L678.42 447.8C673.32 457.4 660.32 459.2 652.82 451.4L605.62 402.7L595.02 412.9L642.22 461.7C649.82 469.5 647.52 482.4 637.72 487.2L576.72 517L583.12 530.2L644.12 500.4C653.92 495.6 665.42 501.8 667.02 512.6L676.42 579.8L690.92 577.8L681.52 510.6C680.02 499.8 689.42 490.7 700.12 492.6L766.92 504.4L769.52 489.8Z" fill="#B7B7B7"/>
<path d="M679.82 575.2L670.92 511.9C670.12 506.3 667.12 501.4 662.42 498.2C657.82 495 652.02 493.9 646.62 495.2C645.12 495.5 643.72 496.1 642.32 496.7L584.92 524.7L582.02 518.7L639.42 490.7C645.22 487.9 649.22 482.6 650.32 476.2C651.42 469.8 649.52 463.5 645.02 458.8L600.62 412.9L605.42 408.3L649.82 454.2C654.72 459.3 661.82 461.4 668.72 459.8C674.32 458.5 679.12 454.8 681.82 449.7L711.82 393.3L717.72 396.4L687.72 452.8C684.72 458.5 684.52 465.1 687.42 471C690.22 476.8 695.52 480.8 701.92 481.9L764.82 493L763.62 499.6L700.72 488.5C698.02 488 695.32 488.1 692.72 488.7C682.52 491 675.92 500.6 677.42 511L686.32 574.3L679.82 575.2Z" fill="#A9A8A9"/>
<path d="M769.52 489.8L702.72 478C692.02 476.1 686.22 464.3 691.42 454.7L723.32 394.8L710.32 387.9L678.42 447.8C673.32 457.4 660.32 459.2 652.82 451.4L605.62 402.7L595.02 412.9L642.22 461.7C649.82 469.5 647.52 482.4 637.72 487.2L576.72 517L583.12 530.2L644.12 500.4C653.92 495.6 665.42 501.8 667.02 512.6L676.42 579.8L690.92 577.8L681.52 510.6C680.02 499.8 689.42 490.7 700.12 492.6L766.92 504.4L769.52 489.8Z" stroke="#151515" stroke-width="4" stroke-miterlimit="10" stroke-linecap="round" stroke-linejoin="round"/>
<path d="M653.32 362.9C588.92 372 543.82 431.7 552.92 496.2C562.02 560.7 621.72 605.6 686.22 596.6C750.72 587.6 795.72 527.7 786.62 463.3C777.52 398.9 717.82 353.8 653.32 362.9ZM683.72 578.7C629.02 586.4 578.42 548.3 570.82 493.6C563.12 438.9 601.22 388.3 655.92 380.7C710.62 373 761.22 411.1 768.82 465.8C776.52 520.5 738.42 571.1 683.72 578.7Z" fill="#242424"/>
<path opacity="0.92" d="M653.32 362.9C588.92 372 543.82 431.7 552.92 496.2C562.02 560.6 621.72 605.7 686.22 596.6C750.72 587.5 795.72 527.7 786.62 463.3C777.52 398.9 717.82 353.8 653.32 362.9ZM778.72 464.4C785.62 513.6 758.52 561.6 712.72 581C703.92 584.7 694.62 587.3 685.02 588.7C656.02 592.8 627.02 585.3 603.52 567.6C580.02 549.9 564.82 524.2 560.72 495.1C553.82 445.9 580.92 397.9 626.72 378.5C635.52 374.8 644.82 372.2 654.42 370.8C683.42 366.7 712.42 374.2 735.92 391.9C759.42 409.6 774.62 435.4 778.72 464.4Z" fill="#191919"/>
<path d="M669.72 579.7C724.948 579.7 769.72 534.928 769.72 479.7C769.72 424.472 724.948 379.7 669.72 379.7C614.491 379.7 569.72 424.472 569.72 479.7C569.72 534.928 614.491 579.7 669.72 579.7Z" stroke="#151515" stroke-width="4" stroke-miterlimit="10" stroke-linecap="round" stroke-linejoin="round"/>
<path d="M653.32 362.9C588.92 372 543.82 431.7 552.92 496.2C562.02 560.7 621.72 605.6 686.22 596.6C750.72 587.6 795.72 527.7 786.62 463.3C777.52 398.9 717.82 353.8 653.32 362.9ZM683.72 578.7C629.02 586.4 578.42 548.3 570.82 493.6C563.12 438.9 601.22 388.3 655.92 380.7C710.62 373 761.22 411.1 768.82 465.8C776.52 520.5 738.42 571.1 683.72 578.7Z" stroke="#151515" stroke-width="4" stroke-miterlimit="10" stroke-linecap="round" stroke-linejoin="round"/>
<path d="M669.72 597.7C734.89 597.7 787.72 544.87 787.72 479.7C787.72 414.53 734.89 361.7 669.72 361.7C604.55 361.7 551.72 414.53 551.72 479.7C551.72 544.87 604.55 597.7 669.72 597.7Z" stroke="#151515" stroke-width="4" stroke-miterlimit="10" stroke-linecap="round" stroke-linejoin="round"/>
<path d="M669.72 597.7C734.89 597.7 787.72 544.87 787.72 479.7C787.72 414.53 734.89 361.7 669.72 361.7C604.55 361.7 551.72 414.53 551.72 479.7C551.72 544.87 604.55 597.7 669.72 597.7Z" stroke="#151515" stroke-width="6" stroke-miterlimit="10" stroke-linecap="round" stroke-linejoin="round"/>
<path d="M655.82 380.7C601.12 388.4 563.02 439 570.72 493.6C578.42 548.3 629.02 586.4 683.62 578.7C738.22 571 776.42 520.4 768.72 465.8C761.12 411.1 710.52 373 655.82 380.7ZM761.82 466.8C768.92 517.6 733.42 564.7 682.62 571.8C631.82 578.9 584.72 543.4 577.62 492.6C570.52 441.8 606.02 394.7 656.82 387.6C707.62 380.5 754.72 416 761.82 466.8Z" fill="#A9A8A9"/>
<path d="M655.82 380.7C601.12 388.4 563.02 439 570.72 493.6C578.42 548.3 629.02 586.4 683.62 578.7C738.22 571 776.42 520.4 768.72 465.8C761.12 411.1 710.52 373 655.82 380.7ZM761.82 466.8C768.92 517.6 733.42 564.7 682.62 571.8C631.82 578.9 584.72 543.4 577.62 492.6C570.52 441.8 606.02 394.7 656.82 387.6C707.62 380.5 754.72 416 761.82 466.8Z" stroke="#151515" stroke-width="4" stroke-miterlimit="10" stroke-linecap="round" stroke-linejoin="round"/>
<path d="M669.72 497.6C679.606 497.6 687.62 489.586 687.62 479.7C687.62 469.814 679.606 461.8 669.72 461.8C659.834 461.8 651.82 469.814 651.82 479.7C651.82 489.586 659.834 497.6 669.72 497.6Z" fill="#242424"/>
<path d="M669.72 497.6C679.606 497.6 687.62 489.586 687.62 479.7C687.62 469.814 679.606 461.8 669.72 461.8C659.834 461.8 651.82 469.814 651.82 479.7C651.82 489.586 659.834 497.6 669.72 497.6Z" stroke="#151515" stroke-width="3" stroke-miterlimit="10" stroke-linecap="round" stroke-linejoin="round"/>
<path opacity="0.92" d="M682.02 478C679.72 474.4 679.52 470 681.12 466.4C677.42 463.3 672.52 461.7 667.42 462.4C666.12 462.6 664.82 462.9 663.62 463.4C663.62 463.5 663.62 463.6 663.62 463.8C663.92 470.4 659.02 475.9 652.62 476.6C652.32 478.4 652.22 480.3 652.52 482.2C653.12 486.8 655.52 490.7 658.82 493.4C658.92 493.3 659.02 493.3 659.12 493.2C664.62 489.7 671.92 491.1 675.72 496.3C681.72 494.1 686.12 488.8 687.12 482.6C685.12 481.5 683.32 480 682.02 478Z" fill="#191919"/>
<path d="M669.72 485.4C672.868 485.4 675.42 482.848 675.42 479.7C675.42 476.552 672.868 474 669.72 474C666.572 474 664.02 476.552 664.02 479.7C664.02 482.848 666.572 485.4 669.72 485.4Z" fill="#151515"/>
<path d="M669.72 485.4C672.868 485.4 675.42 482.848 675.42 479.7C675.42 476.552 672.868 474 669.72 474C666.572 474 664.02 476.552 664.02 479.7C664.02 482.848 666.572 485.4 669.72 485.4Z" stroke="#151515" stroke-width="4" stroke-miterlimit="10" stroke-linecap="round" stroke-linejoin="round"/>
<path d="M682.02 478C679.72 474.4 679.52 470 681.12 466.4C677.42 463.3 672.52 461.7 667.42 462.4C666.12 462.6 664.82 462.9 663.62 463.4C663.62 463.5 663.62 463.6 663.62 463.8C663.92 470.4 659.02 475.9 652.62 476.6C652.32 478.4 652.22 480.3 652.52 482.2C653.12 486.8 655.52 490.7 658.82 493.4C658.92 493.3 659.02 493.3 659.12 493.2C664.62 489.7 671.92 491.1 675.72 496.3C681.72 494.1 686.12 488.8 687.12 482.6C685.12 481.5 683.32 480 682.02 478Z" stroke="#151515" stroke-width="3" stroke-miterlimit="10" stroke-linecap="round" stroke-linejoin="round"/>
<path opacity="0.67" d="M676.92 369.9C677.72 370 678.52 370 679.42 370.1C683.82 370.5 688.02 371.1 692.32 372" stroke="white" stroke-width="2" stroke-miterlimit="10" stroke-linecap="round" stroke-linejoin="round"/>
<path opacity="0.67" d="M590.12 403.9C605.92 387.3 626.92 375.5 650.72 371.4" stroke="white" stroke-width="2" stroke-miterlimit="10" stroke-linecap="round" stroke-linejoin="round"/>
<path opacity="0.46" d="M419.22 399.6C419.22 399.6 415.02 411.9 413.12 427.2" stroke="white" stroke-width="2" stroke-miterlimit="10" stroke-linecap="round" stroke-linejoin="round"/>
<path opacity="0.46" d="M411.72 435C411.72 435 410.82 449.4 410.82 452" stroke="white" stroke-width="2" stroke-miterlimit="10" stroke-linecap="round" stroke-linejoin="round"/>
</svg>
